<?xml version="1.0" standalone="no"?>
<!DOCTYPE svg PUBLIC "-//W3C//DTD SVG 1.1//EN" "http://www.w3.org/Graphics/SVG/1.1/DTD/svg11.dtd" >
<svg xmlns="http://www.w3.org/2000/svg">
<metadata>
Created by FontPrep 20130207 at Wed Apr 23 17:42:23 2014
 By Magalie Chetrit
Copyright (c) 2003 by This Font is designed by Ralph Oliver du Carrois. All rights reserved.
</metadata>
<defs>
<font id="094ab4d2128a2af47d60858829d26a8c" horiz-adv-x='1024' >
  <font-face 
    font-family="Colaborate-Regular"
    font-weight="400"
    font-stretch="normal"
    units-per-em="2048"
    panose-1="2 0 5 3 6 0 0 2 0 4"
    ascent="1638"
    descent="-410"
    x-height="936"
    cap-height="1325"
    bbox="-256 -465 2163.02 1710"
    underline-thickness="102"
    underline-position="-102"
    unicode-range="U+0020-FB02"
  />
<missing-glyph horiz-adv-x="2048" 
 />
    <glyph glyph-name=".notdef" horiz-adv-x="2048" 
 />
    <glyph glyph-name=".null" horiz-adv-x="0" 
 />
    <glyph glyph-name="nonmarkingreturn" horiz-adv-x="681" 
 />
    <glyph glyph-name="space" unicode=" " horiz-adv-x="526" 
 />
    <glyph glyph-name="exclam" unicode="!" horiz-adv-x="526" 
d="M367 0h-205v199h205v-199zM354 360h-182v965h182v-965z" />
    <glyph glyph-name="quotedbl" unicode="&#x22;" horiz-adv-x="778" 
d="M328 1325l-17 -444h-137l-16 444h170zM623 1325l-17 -444h-137l-16 444h170z" />
    <glyph glyph-name="numbersign" unicode="#" 
d="M643 803h-197l-51 -297h197zM1022 803h-219l-53 -297h192v-135h-215l-65 -371h-160l65 371h-196l-64 -371h-160l66 371h-184v135h207l53 297h-180v135h204l68 387h160l-68 -387h195l67 387h160l-68 -387h195v-135z" />
    <glyph glyph-name="dollar" unicode="$" 
d="M741 340q0 123 -151 201v-400q151 45 151 199zM444 815v367q-158 -35 -157 -189q1 -63 41 -104t116 -74zM944 344q0 -326 -352 -373v-172h-150v164q-127 2 -352 62l66 174q10 -5 46 -19t49 -18t43 -14q76 -27 148 -27v485q-217 82 -288 170q-72 88 -71 231q1 142 100 229
t259 107v185h150v-180q174 -12 295 -54l-66 -174q-131 59 -229 68v-432q78 -31 130 -58q52 -28 108 -74q114 -94 114 -280z" />
    <glyph glyph-name="percent" unicode="%" horiz-adv-x="1605" 
d="M375 729q87 -1 117 67t30 200t-27 194q-28 61 -115 61q-87 -1 -117 -69t-30 -194t27 -192t115 -67zM1374 339q0 132 -27 195q-28 62 -115 62t-116 -69t-29 -162q0 -149 23 -221t114 -72t121 67q29 68 29 200zM653 995q0 -170 -60 -267t-217 -97t-216 97t-60 269
q0 350 277 351q158 0 217 -92t59 -261zM1253 1288l-743 -1288h-164l741 1288h166zM1507 339q0 -169 -61 -266t-218 -97t-216 96t-60 268q0 352 277 352q158 0 218 -92t60 -261z" />
    <glyph glyph-name="ampersand" unicode="&#x26;" 
d="M651 1030q0 184 -170 184q-160 0 -159 -198q0 -76 68 -139q13 -13 38 -33t31 -27q86 37 139 86t53 127zM958 0h-167l-29 100q-37 -55 -109 -93t-143 -38q-178 1 -297 97t-119 296q0 264 232 381q-4 4 -35 27q-55 41 -88 75q-33 35 -51 84q-17 50 -17 85q0 152 85 247
t259 95q355 0 357 -328q0 -197 -332 -336q-113 -47 -167 -123t-54 -190q0 -113 58 -191t184 -78t225 148v207h-197v131h377v-309q0 -61 14 -172t14 -115z" />
    <glyph glyph-name="quotesingle" unicode="'" horiz-adv-x="526" 
d="M348 1325l-16 -444h-137l-17 444h170z" />
    <glyph glyph-name="parenleft" unicode="(" horiz-adv-x="604" 
d="M115 536q0 250 46 416t161 373h165q-109 -199 -147 -371t-39 -418q0 -246 39 -414q39 -169 158 -384h-166q-129 223 -173 386q-44 162 -44 412z" />
    <glyph glyph-name="parenright" unicode=")" horiz-adv-x="604" 
d="M494 536q0 -250 -44 -412q-44 -163 -174 -386h-167q119 215 157 384q39 168 39 414t-39 418t-147 371h168q115 -207 161 -373t46 -416z" />
    <glyph glyph-name="asterisk" unicode="*" horiz-adv-x="839" 
d="M817 991l-301 -73l-2 -15l197 -254l-107 -76l-170 263h-16l-174 -263l-107 78l197 252l-4 15l-305 75l41 129l292 -110l17 12l-15 305h129l-16 -311l14 -8l293 108z" />
    <glyph glyph-name="plus" unicode="+" 
d="M963 373h-355v-373h-164v373h-354v145h354v359h164v-359h355v-145z" />
    <glyph glyph-name="comma" unicode="," horiz-adv-x="526" 
d="M365 154l-166 -365h-142l105 365h203z" />
    <glyph glyph-name="hyphen" unicode="-" horiz-adv-x="692" 
d="M635 401h-578v156h578v-156z" />
    <glyph glyph-name="period" unicode="." horiz-adv-x="526" 
d="M365 0h-203v197h203v-197z" />
    <glyph glyph-name="slash" unicode="/" horiz-adv-x="567" 
d="M582 1346l-435 -1369h-161l436 1369h160z" />
    <glyph glyph-name="zero" unicode="0" 
d="M770 565q0 163 -4 227q-11 172 -56 237q-61 89 -186 87q-156 0 -203 -154q-38 -122 -38 -276q0 -155 3 -220q8 -177 55 -251q61 -96 181 -94q82 0 134 38t83 140t31 266zM975 631q0 -490 -223 -614q-92 -50 -228 -50q-271 0 -365 197q-46 96 -64 206q-17 110 -17 261
q0 639 446 639q272 0 367 -186q47 -91 65 -197t19 -256z" />
    <glyph glyph-name="one" unicode="1" 
d="M735 -2h-205v1040l-235 -194l-64 153l308 246h196v-1245z" />
    <glyph glyph-name="two" unicode="2" 
d="M954 0h-807l-59 168q388 303 516 459q47 57 83 126t36 124q0 131 -58 186t-173 55t-306 -98l-63 170q131 49 207 65t170 17q188 0 309 -91t121 -296q0 -78 -44 -169t-98 -161q-127 -163 -432 -399h598v-156z" />
    <glyph glyph-name="three" unicode="3" 
d="M903 336q0 -102 -40 -177q-39 -75 -109 -115q-130 -75 -330 -76q-199 -1 -346 50l61 170q164 -68 291 -68t198 58q70 56 70 158t-53 158t-131 70q-78 15 -207 16v147q188 0 275 40q86 40 86 167q0 184 -207 184q-111 0 -299 -92l-62 170q66 32 174 54t191 22
q408 0 407 -334q0 -127 -78 -198t-198 -85q129 -20 218 -96t89 -223z" />
    <glyph glyph-name="four" unicode="4" 
d="M610 492v542l-399 -542h399zM1008 336h-197v-336h-201v336h-495l-68 160l553 747h211v-751h197v-156z" />
    <glyph glyph-name="five" unicode="5" 
d="M547 803q189 1 295 -105t106 -306t-132 -312t-351 -113q-219 0 -363 47l64 170q158 -63 311 -63q270 0 271 278q0 125 -58 185t-155 61q-53 0 -107 -15q-54 -14 -75 -26q-22 -12 -72 -41l-140 55v625h756v-153h-555v-326q121 39 205 39z" />
    <glyph glyph-name="six" unicode="6" 
d="M754 385q0 206 -99 260q-45 25 -110 25q-174 0 -244 -181q0 -209 60 -289t167 -79q106 1 166 69t60 195zM557 823q199 -1 300 -115t101 -308t-120 -313q-120 -120 -297 -120q-449 0 -449 613q0 389 222 584q122 108 280 108t297 -37l-64 -170q-113 53 -204 53
q-168 0 -254 -134t-86 -339q41 82 120 130q80 48 154 48z" />
    <glyph glyph-name="seven" unicode="7" 
d="M98 1087v154h756l66 -137l-453 -1104h-221l493 1087h-641z" />
    <glyph glyph-name="eight" unicode="8" 
d="M776 315q0 186 -250 267q-114 -38 -182 -96t-68 -160q0 -206 244 -207q123 0 190 51q66 51 66 145zM748 943q0 177 -218 177q-112 0 -162 -45t-50 -133t62 -141t142 -78q88 25 157 79t69 141zM975 311q1 -344 -449 -344t-450 344q0 264 301 344l-21 9q-24 8 -30 12
t-30 15t-36 19t-35 25q-23 16 -50 49q-56 69 -56 156q0 160 106 246t311 86q204 0 306 -79t102 -251q0 -86 -54 -155q-84 -107 -216 -134q150 -43 226 -125t75 -217z" />
    <glyph glyph-name="nine" unicode="9" 
d="M522 1118q-106 0 -165 -69q-58 -70 -58 -197q0 -203 97 -258q44 -25 110 -25q176 1 246 181q0 208 -62 288t-168 80zM878 1077q83 -166 83 -422t-122 -464q-59 -101 -163 -162q-190 -112 -514 -25l63 170q113 -53 203 -53q168 0 255 134t87 339q-41 -82 -121 -130
t-153 -48q-199 0 -301 114q-103 114 -103 306q0 194 122 315t296 121q269 0 368 -195z" />
    <glyph glyph-name="colon" unicode=":" horiz-adv-x="526" 
d="M365 0h-203v197h203v-197zM365 729h-203v197h203v-197z" />
    <glyph glyph-name="semicolon" unicode=";" horiz-adv-x="526" 
d="M365 154l-166 -365h-142l103 365h205zM362 729h-202v197h202v-197z" />
    <glyph glyph-name="less" unicode="&#x3c;" 
d="M971 59l-889 322v205l889 325v-182l-705 -246l705 -241v-183z" />
    <glyph glyph-name="equal" unicode="=" 
d="M971 170h-889v147h889v-147zM971 524h-889v148h889v-148z" />
    <glyph glyph-name="greater" unicode="&#x3e;" 
d="M971 385l-889 -326v183l704 245l-704 242v182l889 -323v-203z" />
    <glyph glyph-name="question" unicode="?" horiz-adv-x="890" 
d="M504 0h-205v199h205v-199zM631 1024q0 164 -169 164q-81 0 -173 -23t-148 -49l-37 168q176 61 334 62q277 0 355 -158q34 -68 34 -153q-1 -85 -35 -141t-83 -97t-97 -80q-119 -96 -118 -193v-176h-185v187q0 125 83 208q58 57 149 126q90 69 90 155z" />
    <glyph glyph-name="at" unicode="@" horiz-adv-x="1781" 
d="M1616 783q0 -287 -186 -406t-425 -119t-360 103t-121 285t106 292q106 111 308 111q109 0 201 -29v-354l55 4l53 -138l-274 -28v393q-16 10 -47 10q-94 0 -156 -57t-63 -203q0 -146 98 -205q82 -49 180 -49q215 0 331 83t116 302q0 119 -41 206t-112 134q-139 92 -320 91
q-300 -1 -467 -167q-62 -60 -102 -160t-40 -228t40 -228t102 -160q168 -160 474 -161q189 -1 427 69l63 -151q-221 -59 -504 -60q-358 0 -572 178t-214 515t221 515t567 179q240 0 439 -128q99 -64 161 -180q62 -115 62 -259z" />
    <glyph glyph-name="A" unicode="A" horiz-adv-x="1345" 
d="M874 528l-192 559l-207 -559h399zM1282 0h-225l-131 375h-508l-139 -375h-216l539 1325h180z" />
    <glyph glyph-name="B" unicode="B" horiz-adv-x="1234" 
d="M909 381q0 223 -264 223h-244v-446h267q115 0 178 48t63 175zM850 967q0 102 -55 151t-183 49h-211v-407h240q92 0 151 52q58 53 58 155zM1120 381q0 -381 -440 -381h-483v1325h415q211 0 329 -79t118 -277q-1 -100 -59 -172t-152 -103q127 -23 200 -101q72 -79 72 -212z
" />
    <glyph glyph-name="C" unicode="C" horiz-adv-x="1144" 
d="M125 662q0 294 133 490t459 198q178 0 336 -52l-66 -174q-158 68 -270 68q-381 0 -381 -528q0 -262 85 -402t284 -141q104 0 296 78l66 -174q-174 -61 -360 -62q-582 0 -582 699z" />
    <glyph glyph-name="D" unicode="D" horiz-adv-x="1333" 
d="M575 1167h-174v-1009h193q203 0 303 114t100 407q0 292 -110 394q-57 53 -130 73t-182 21zM1208 667q0 -357 -148 -512t-485 -155h-378v1325h378q336 0 485 -150q148 -151 148 -508z" />
    <glyph glyph-name="E" unicode="E" horiz-adv-x="1144" 
d="M975 0h-778v1325h759v-158h-555v-403h512v-158h-512v-448h574v-158z" />
    <glyph glyph-name="F" unicode="F" horiz-adv-x="1067" 
d="M956 1165h-555v-409h531v-156h-531v-600h-204v1325h759v-160z" />
    <glyph glyph-name="G" unicode="G" horiz-adv-x="1259" 
d="M709 -37q-584 0 -584 701q0 322 146 504t456 182q123 0 320 -52l-66 -174q-156 68 -252 68q-195 0 -294 -124t-99 -395t83 -411t296 -141q121 0 237 65v338h-293v158h476v-602q-113 -61 -205 -89t-221 -28z" />
    <glyph glyph-name="H" unicode="H" horiz-adv-x="1372" 
d="M1176 0h-205v604h-570v-604h-204v1325h204v-561h570v561h205v-1325z" />
    <glyph glyph-name="I" unicode="I" horiz-adv-x="548" 
d="M377 0h-205v1325h205v-1325z" />
    <glyph glyph-name="J" unicode="J" horiz-adv-x="862" 
d="M666 418q0 -169 -56 -267q-29 -52 -59 -94q-45 -60 -140 -113t-176 -75q-83 -21 -115 -31t-34 -10l-53 172q71 10 141 29q144 38 195 94q51 57 63 96q29 94 29 178v928h205v-907z" />
    <glyph glyph-name="K" unicode="K" horiz-adv-x="1277" 
d="M401 0h-204v1325h204v-582l537 582h229l-577 -625l657 -700h-266l-580 623v-623z" />
    <glyph glyph-name="L" unicode="L" horiz-adv-x="993" 
d="M979 0h-782v1325h204v-1161h578v-164z" />
    <glyph glyph-name="M" unicode="M" horiz-adv-x="1804" 
d="M1608 0h-199v1108l-412 -1108h-194l-414 1108v-1108h-192v1325h325l385 -1046l391 1046h310v-1325z" />
    <glyph glyph-name="N" unicode="N" horiz-adv-x="1435" 
d="M1239 0h-303l-547 1083v-1083h-192v1325h299l542 -1083v1083h201v-1325z" />
    <glyph glyph-name="O" unicode="O" horiz-adv-x="1439" 
d="M1104 660q0 268 -89 400t-293 132t-295 -132t-91 -404t90 -404q90 -131 297 -131t294 136t87 403zM1315 657q0 -319 -140 -506t-452 -188q-598 0 -598 694q0 317 143 505t457 188q590 -1 590 -693z" />
    <glyph glyph-name="P" unicode="P" horiz-adv-x="1183" 
d="M627 696q119 0 180 54t61 189q0 134 -64 181q-65 47 -188 47h-215v-471h226zM1077 938q0 -399 -434 -399h-242v-539h-204v1325h424q456 0 456 -387z" />
    <glyph glyph-name="Q" unicode="Q" horiz-adv-x="1439" 
d="M1104 660q0 268 -89 400t-293 132t-295 -132t-91 -404t90 -404q90 -131 297 -131t294 136t87 403zM1176 -125l-72 -143l-449 67l72 117zM1315 657q0 -319 -140 -506t-452 -188q-598 0 -598 694q0 317 142 505t458 188q590 -1 590 -693z" />
    <glyph glyph-name="R" unicode="R" horiz-adv-x="1257" 
d="M664 729q111 -1 163 61t52 164q1 102 -55 158t-162 55h-261v-438h263zM401 571v-571h-204v1325h454q177 0 297 -74q141 -83 139 -295q-1 -154 -83 -257t-269 -121l432 -578h-247l-422 571h-97z" />
    <glyph glyph-name="S" unicode="S" horiz-adv-x="1171" 
d="M610 1192q-266 0 -266 -199q0 -55 40 -97t84 -62t132 -52q205 -72 283 -129q153 -110 153 -309q0 -381 -524 -381q-152 0 -377 62l66 174q207 -78 313 -78q313 0 313 219q0 81 -52 131t-160 93q-27 11 -97 37q-232 87 -308 174q-75 87 -75 214t71 210q129 151 406 151
q180 0 342 -56l-65 -174q-144 72 -279 72z" />
    <glyph glyph-name="T" unicode="T" horiz-adv-x="1058" 
d="M1010 1165h-379v-1165h-203v1165h-379v160h961v-160z" />
    <glyph glyph-name="U" unicode="U" horiz-adv-x="1435" 
d="M1239 485q0 -522 -508 -522q-276 0 -405 129t-129 397v836h204v-815q0 -225 81 -307t241 -82q159 0 235 90t76 299v815h205v-840z" />
    <glyph glyph-name="V" unicode="V" horiz-adv-x="1286" 
d="M1227 1325l-482 -1325h-186l-500 1325h226l372 -1065l355 1065h215z" />
    <glyph glyph-name="W" unicode="W" horiz-adv-x="1890" 
d="M1819 1325l-346 -1325h-248l-277 989l-311 -989h-248l-317 1325h215l252 -1069l301 1014h245l269 -1016l268 1071h197z" />
    <glyph glyph-name="X" unicode="X" horiz-adv-x="1239" 
d="M1163 0h-243l-306 524l-331 -524h-220l443 684l-389 641h235l275 -463l291 463h219l-408 -629z" />
    <glyph glyph-name="Y" unicode="Y" horiz-adv-x="1208" 
d="M711 0h-205v588l-475 737h231l354 -553l345 553h217l-467 -729v-596z" />
    <glyph glyph-name="Z" unicode="Z" horiz-adv-x="1126" 
d="M1020 160v-160h-873l-57 168l725 997h-649v160h813l57 -168l-725 -997h709z" />
    <glyph glyph-name="bracketleft" unicode="[" horiz-adv-x="591" 
d="M496 -260h-326v1644h326v-133h-162v-1372h162v-139z" />
    <glyph glyph-name="backslash" unicode="\" horiz-adv-x="567" 
d="M582 -23h-162l-434 1369h159z" />
    <glyph glyph-name="bracketright" unicode="]" horiz-adv-x="591" 
d="M434 -258h-325v137h161v1374h-161v133h325v-1644z" />
    <glyph glyph-name="asciicircum" unicode="^" 
d="M985 551h-178l-283 604l-282 -604h-172l370 774h166z" />
    <glyph glyph-name="underscore" unicode="_" horiz-adv-x="1024" 
d="M1026 -223h-1028v139h1028v-139z" />
    <glyph glyph-name="grave" unicode="`" horiz-adv-x="466" 
d="M428 1085h-135l-254 240h192z" />
    <glyph glyph-name="a" unicode="a" horiz-adv-x="1026" 
d="M686 451h-57q-189 1 -267 -47t-77 -150q0 -68 51 -102t137 -35q145 -1 213 110v224zM731 0q0 4 -16 51t-17 51q-110 -127 -264 -127t-248 69q-94 68 -94 214t114 232t394 88h84v59q0 182 -159 182t-330 -82l-64 152q195 72 375 72q362 0 362 -299v-375q0 -60 14 -154
t19 -133h-170z" />
    <glyph glyph-name="b" unicode="b" horiz-adv-x="1046" 
d="M522 117q244 0 244 351t-217 351q-59 0 -109 -36q-50 -35 -74 -69q-22 -34 -49 -85v-375q29 -63 84 -100t121 -37zM954 473q0 -215 -104 -356t-303 -142q-78 0 -138 38t-94 89l-32 -102h-166q23 176 22 287v1059h183v-541q106 156 251 156q197 -1 289 -137t92 -351z" />
    <glyph glyph-name="c" unicode="c" horiz-adv-x="923" 
d="M92 467q0 229 111 361t334 133q59 -1 155 -21t152 -43l-64 -152q-147 74 -245 74q-135 0 -195 -88t-59 -270q0 -344 251 -344q111 0 254 73l64 -151q-52 -25 -156 -44t-164 -20q-214 0 -326 131t-112 361z" />
    <glyph glyph-name="d" unicode="d" horiz-adv-x="1046" 
d="M500 819q-219 0 -219 -350q0 -184 59 -268t181 -84t208 137v375q-94 190 -229 190zM500 -25q-208 -1 -308 139t-100 354t99 353t286 140q141 0 248 -156v541h182v-1059q0 -111 23 -287h-166l-33 102q-35 -53 -96 -90t-135 -37z" />
    <glyph glyph-name="e" unicode="e" horiz-adv-x="1026" 
d="M752 535q-8 285 -242 284q-90 0 -154 -70q-63 -71 -71 -214h467zM930 397h-643q20 -285 248 -284q125 0 284 80l60 -144q-160 -74 -365 -74q-206 -1 -314 137t-108 336t84 343q45 77 130 123t202 47q238 1 330 -139t92 -425z" />
    <glyph glyph-name="f" unicode="f" horiz-adv-x="632" 
d="M350 1014v-78h213v-141h-213v-795h-182v795h-141v141h141v63q0 253 282 355q69 25 136 28l47 -153q-283 -31 -283 -215z" />
    <glyph glyph-name="g" unicode="g" horiz-adv-x="1067" 
d="M807 -141q0 106 -430 125q-49 -16 -79 -52t-30 -73q0 -61 75 -99t208 -36q256 0 256 135zM741 614q0 207 -213 207q-98 0 -155 -55q-57 -56 -57 -160t56 -160t162 -55t157 65q50 64 50 158zM932 610q0 -148 -95 -252t-309 -104q-36 0 -104 11t-96 28q-47 -43 -47 -81
t55 -58t267 -36t303 -80q91 -62 91 -189t-131 -193t-353 -66q-435 0 -435 263q0 125 174 184q-127 55 -127 168q0 74 100 157q-100 123 -100 248q0 89 35 155t76 104q42 38 116 65t164 27t166 -21q232 19 322 23l-52 -129h-123q39 -32 71 -94t32 -130z" />
    <glyph glyph-name="h" unicode="h" horiz-adv-x="1042" 
d="M903 0h-182v588q0 113 -35 172t-141 59q-139 0 -223 -186v-633h-183v1346h183v-541q37 59 101 108q65 49 150 50q182 -1 256 -99t74 -268v-596z" />
    <glyph glyph-name="i" unicode="i" horiz-adv-x="466" 
d="M326 0h-185v936h185v-936zM332 1145h-197v180h197v-180z" />
    <glyph glyph-name="j" unicode="j" horiz-adv-x="458" 
d="M315 12q0 -279 -311 -377l-61 154q106 23 148 68t42 137v942h182v-924zM324 1145h-199v180h199v-180z" />
    <glyph glyph-name="k" unicode="k" horiz-adv-x="950" 
d="M322 0h-183v1346h183v-787l352 377h198l-380 -406l430 -530h-213l-387 479v-479z" />
    <glyph glyph-name="l" unicode="l" horiz-adv-x="460" 
d="M322 0h-183v1346h183v-1346z" />
    <glyph glyph-name="m" unicode="m" horiz-adv-x="1617" 
d="M139 721q0 39 -22 215h166l34 -133q39 57 107 108t145 52q117 0 181 -41t114 -129q45 73 119 121t168 49q328 0 328 -365v-598h-183v594q0 113 -38 169t-125 56t-148 -58t-90 -138v-623h-182v594q0 121 -42 173t-122 52t-140 -59t-87 -125v-635h-183v721z" />
    <glyph glyph-name="n" unicode="n" horiz-adv-x="1042" 
d="M903 0h-182v592q0 109 -34 168t-125 59q-154 0 -240 -186v-633h-183v737q0 45 -10 112t-12 87h166l32 -131l17 22q65 73 88 85q64 36 93 43q30 7 58 8q184 1 258 -97t74 -276v-590z" />
    <glyph glyph-name="o" unicode="o" horiz-adv-x="1058" 
d="M778 473q0 176 -57 261t-191 85q-250 0 -250 -351t250 -351q248 0 248 356zM967 472q-1 -222 -105 -360t-332 -138t-333 138t-105 356t106 356t333 138q228 0 332 -134t104 -356z" />
    <glyph glyph-name="p" unicode="p" horiz-adv-x="1046" 
d="M766 467q0 182 -58 267t-184 85q-68 0 -121 -53t-84 -131v-381q86 -137 228 -137q219 0 219 350zM954 463q0 -211 -96 -350t-285 -140q-77 0 -145 36t-106 91v-469h-183v1022q0 115 -22 283h166l36 -131q105 158 243 158t230 -72q92 -71 126 -179q36 -108 36 -249z" />
    <glyph glyph-name="q" unicode="q" horiz-adv-x="1046" 
d="M520 819q-240 0 -240 -351t220 -351q143 0 229 137v381q-31 76 -86 130t-123 54zM907 653v-1022h-182v469q-41 -55 -108 -91t-142 -36q-197 1 -290 139t-93 353t98 356t295 142q135 0 242 -158l37 131h166q-23 -168 -23 -283z" />
    <glyph glyph-name="r" unicode="r" horiz-adv-x="737" 
d="M514 819q-80 0 -116 -61t-55 -110q-19 -50 -21 -54v-594h-183v727q0 37 -22 209h166l32 -164q37 70 95 130t127 61q96 -1 174 -48l-66 -153q-88 57 -131 57z" />
    <glyph glyph-name="s" unicode="s" horiz-adv-x="886" 
d="M465 819q-182 0 -182 -123q-1 -34 27 -58t58 -36t91 -33q170 -53 231 -98q105 -78 105 -219q-1 -141 -107 -210t-277 -69t-329 64l63 151q8 -2 23 -8q145 -59 231 -63h29q98 0 138 35t40 100q0 31 -18 58t-75 49q-57 21 -123 43t-104 38q-40 16 -91 50q-101 67 -101 200
q0 100 58 164t138 86q78 23 192 23t298 -62l-65 -153q-154 71 -250 71z" />
    <glyph glyph-name="t" unicode="t" horiz-adv-x="638" 
d="M178 795h-151v143h151v244h184v-244h218v-143h-218v-568q0 -176 252 -227l-63 -166q-168 41 -270 143t-103 254v564z" />
    <glyph glyph-name="u" unicode="u" horiz-adv-x="1028" 
d="M139 346v590h183v-592q0 -70 9 -114t49 -78t112 -35q131 0 215 186v633h182v-737q0 -45 10 -112t12 -87h-166l-32 131q-17 -35 -63 -74q-46 -40 -82 -61t-103 -23q-326 0 -326 373z" />
    <glyph glyph-name="v" unicode="v" horiz-adv-x="1050" 
d="M973 936l-361 -936h-172l-362 936h196l258 -713l252 713h189z" />
    <glyph glyph-name="w" unicode="w" horiz-adv-x="1544" 
d="M1475 936l-314 -936h-186l-199 616l-215 -616h-190l-301 936h194l219 -711l213 625h176l201 -623l217 709h185z" />
    <glyph glyph-name="x" unicode="x" horiz-adv-x="966" 
d="M918 0h-211l-226 346l-237 -346h-195l338 473l-315 463h211l209 -326l217 326h192l-317 -449z" />
    <glyph glyph-name="y" unicode="y" horiz-adv-x="1040" 
d="M963 936l-392 -1086q-43 -120 -115 -194t-206 -121l-60 154q145 39 181 133l82 217l-375 897h196l269 -686l231 686h189z" />
    <glyph glyph-name="z" unicode="z" horiz-adv-x="874" 
d="M782 141v-141h-655l-64 152l541 643h-483v141h624l66 -152l-539 -643h510z" />
    <glyph glyph-name="braceleft" unicode="{" horiz-adv-x="765" 
d="M633 1180q-101 0 -149 -54t-57 -136q-9 -83 -14 -169t-40 -166t-111 -114q66 -25 103 -83t43 -128t14 -147t20 -138t60 -101t131 -40v-146q-102 2 -175 34t-107 81q-33 49 -55 111t-26 128q-4 65 -13 128t-21 112t-46 82t-92 37v145q72 2 108 54t40 131q4 78 18 168
t40 167t109 131t220 58v-145z" />
    <glyph glyph-name="bar" unicode="|" horiz-adv-x="526" 
d="M342 -340h-158v1778h158v-1778z" />
    <glyph glyph-name="braceright" unicode="}" horiz-adv-x="765" 
d="M131 -96q98 0 147 55q48 55 57 139t14 172t41 165t114 106q-76 35 -111 115t-40 165q-5 86 -15 169t-58 136t-149 54v145q104 -4 178 -36t109 -81q76 -106 84 -235t33 -244q10 -49 44 -80t89 -33v-145q-108 -8 -136 -116t-34 -208q-10 -165 -84 -274q-35 -49 -108 -81
t-175 -34v146z" />
    <glyph glyph-name="asciitilde" unicode="~" 
d="M707 465q141 0 141 151l147 -79q1 -102 -71 -169t-191 -67q-77 0 -155 44t-140 87t-96 43q-70 0 -104 -35t-33 -118l-150 77q0 104 70 170t188 66t303 -128q61 -42 91 -42z" />
    <glyph glyph-name="nbspace" unicode="&#xa0;" horiz-adv-x="526" 
 />
    <glyph glyph-name="exclamdown" unicode="&#xa1;" horiz-adv-x="526" 
d="M354 0h-182v965h182v-965zM367 1126h-205v199h205v-199z" />
    <glyph glyph-name="cent" unicode="&#xa2;" horiz-adv-x="903" 
d="M281 472q0 -290 168 -339v674q-168 -45 -168 -335zM600 -205h-151v187q-176 25 -267 151q-90 127 -90 333t88 335t269 153v191h151v-191q111 -14 223 -57l-63 -152q-92 45 -160 62v-680q78 18 166 63l63 -151q-74 -37 -229 -57v-187z" />
    <glyph glyph-name="sterling" unicode="&#xa3;" 
d="M1006 0h-897v164h135v481h-150v146h150v32q0 127 36 223t87 152q51 55 135 94q84 38 152 54t167 30l56 -172q-193 -18 -259 -47q-170 -72 -169 -328v-38h331v-146h-331v-481h557v-164z" />
    <glyph glyph-name="currency" unicode="&#xa4;" 
d="M756 1192q-141 0 -219 -79t-109 -226h549l-49 -158h-520v-117h487l-49 -157h-424q26 -162 102 -248t226 -86q50 0 82 8t48 11q15 2 45 14l40 16t46 18t44 19v-195q-147 -49 -303 -49q-467 0 -541 492h-213l49 157h150v50l-2 45l2 22h-199l49 158h170q86 463 545 463
q174 -1 338 -54l-53 -172q-150 68 -291 68z" />
    <glyph glyph-name="yen" unicode="&#xa5;" 
d="M909 653v-143h-278v-125h278v-145h-278v-240h-205v240h-276v145h276v125h-276v143h241l-385 672h227l304 -553l297 553h213l-383 -672h245z" />
    <glyph glyph-name="brokenbar" unicode="&#xa6;" horiz-adv-x="526" 
d="M344 -160h-162v479h162v-479zM344 735h-162v479h162v-479z" />
    <glyph glyph-name="section" unicode="&#xa7;" horiz-adv-x="929" 
d="M285 684q0 -53 58 -82t126 -49q67 -20 92 -29q84 35 84 110t-62 111q-36 21 -64 30t-49 17t-79 25q-106 -25 -106 -133zM834 645q0 -141 -119 -207q80 -66 80 -200t-108 -202q-107 -69 -261 -69t-317 64l63 153q38 -14 76 -32q38 -17 74 -29t119 -12q163 0 163 135
q0 93 -179 141q-75 20 -150 48t-127 89t-52 156q0 156 127 217q-94 70 -94 180q0 145 108 209q214 126 549 2l-63 -151l-34 17q-30 15 -36 17q-7 3 -31 13q-53 22 -118 22q-184 0 -185 -123q-1 -47 53 -77t130 -52q76 -20 150 -50t128 -96t54 -163z" />
    <glyph glyph-name="dieresis" unicode="&#xa8;" horiz-adv-x="466" 
d="M160 1155h-172v170h172v-170zM477 1155h-172v170h172v-170z" />
    <glyph glyph-name="copyright" unicode="&#xa9;" horiz-adv-x="1474" 
d="M735 242q-358 0 -358 417q0 184 86 298t278 114q115 0 207 -31l-41 -108q-96 41 -166 41q-233 -1 -233 -317t225 -316q68 0 185 47l38 -108q-106 -37 -221 -37zM1303 665q0 237 -164 405t-403 169q-240 0 -402 -168q-162 -167 -162 -405t166 -408t399 -170t400 170
q166 170 166 407zM51 664q0 288 199 486q200 198 490 198t486 -196t197 -487q-1 -290 -199 -488q-198 -197 -487 -197t-487 198t-199 486z" />
    <glyph glyph-name="ordfeminine" unicode="&#xaa;" 
d="M635 1040h-33q-113 0 -157 -22t-44 -78q0 -66 107 -66q80 0 127 68v98zM664 801q0 1 -10 27t-11 30q-69 -72 -159 -72t-148 38q-57 38 -57 112q0 188 307 188h49v27q-1 45 -21 68t-100 23t-174 -44l-37 92q111 39 223 39t170 -42q59 -42 60 -122v-207q0 -7 20 -157h-112z
" />
    <glyph glyph-name="guillemotleft" unicode="&#xab;" horiz-adv-x="792" 
d="M420 926l-199 -369l197 -369h-170l-191 365l191 373h172zM739 926l-198 -369l196 -369h-172l-190 365l190 373h174z" />
    <glyph glyph-name="logicalnot" unicode="&#xac;" 
d="M991 201h-164v360h-776v146h940v-506z" />
    <glyph glyph-name="registered" unicode="&#xae;" horiz-adv-x="1474" 
d="M885 838q0 123 -133 123h-158v-256h160q131 0 131 133zM594 606v-342h-127v799h278q113 0 191 -52t78 -173q0 -205 -217 -228l266 -346h-154l-262 342h-53zM1303 665q0 237 -164 405t-403 169q-240 0 -402 -168q-162 -167 -162 -405t166 -408t399 -170t400 170
q166 170 166 407zM51 664q0 288 199 486q200 198 490 198t486 -196t197 -487q-1 -290 -199 -488q-198 -197 -487 -197t-487 198t-199 486z" />
    <glyph glyph-name="macron" unicode="&#xaf;" horiz-adv-x="466" 
d="M485 1137h-503v145h503v-145z" />
    <glyph glyph-name="degree" unicode="&#xb0;" horiz-adv-x="839" 
d="M612 942q0 82 -54 138t-138 56t-139 -56t-55 -139t56 -138q58 -55 136 -55t136 56t58 138zM745 939q0 -136 -96 -226t-231 -90t-229 89q-93 89 -93 226t95 229q95 93 229 93t229 -92q96 -92 96 -229z" />
    <glyph glyph-name="plusminus" unicode="&#xb1;" 
d="M971 2h-889v145h889v-145zM963 496h-355v-250h-164v250h-354v145h354v236h164v-236h355v-145z" />
    <glyph glyph-name="twosuperior" unicode="&#xb2;" horiz-adv-x="714" 
d="M621 651h-492l-37 99q20 16 82 60q112 79 211 165q98 87 97 158q-1 69 -37 95q-37 26 -109 26t-184 -54l-37 105q131 45 237 45t185 -52q80 -52 79 -163q0 -69 -64 -146q-64 -78 -168 -153q-103 -75 -124 -88h361v-97z" />
    <glyph glyph-name="threesuperior" unicode="&#xb3;" horiz-adv-x="714" 
d="M612 822q0 -94 -87 -142t-214 -47q-127 0 -211 26l39 105q91 -37 171 -37q168 0 167 109q0 76 -59 102t-178 25v92q113 -1 166 21t53 81t-33 77t-95 19q-62 0 -177 -51l-39 107q88 41 214 41q125 0 195 -47t70 -127q0 -147 -168 -166q78 -10 132 -52t54 -136z" />
    <glyph glyph-name="acute" unicode="&#xb4;" horiz-adv-x="466" 
d="M428 1325l-256 -240h-133l197 240h192z" />
    <glyph glyph-name="mu" unicode="&#xb5;" 
d="M334 -369h-182v1305h182v-592q0 -70 9 -114t49 -78t112 -35q121 0 215 207v612h182v-737q1 -45 11 -112t12 -87h-166l-33 131q-2 -4 -35 -46t-89 -76t-134 -35t-133 44v-387z" />
    <glyph glyph-name="mu" unicode="&#x3bc;" 
d="M334 -369h-182v1305h182v-592q0 -70 9 -114t49 -78t112 -35q121 0 215 207v612h182v-737q1 -45 11 -112t12 -87h-166l-33 131q-2 -4 -35 -46t-89 -76t-134 -35t-133 44v-387z" />
    <glyph glyph-name="paragraph" unicode="&#xb6;" horiz-adv-x="1105" 
d="M1024 -385h-164v1565h-205q-98 0 -160 -62q-63 -62 -63 -166q0 -102 62 -168t139 -86v-1083h-162v967q-256 27 -330 252q-18 57 -18 119q0 129 66 237q38 61 120 98t199 37h516v-1710z" />
    <glyph glyph-name="periodcentered" unicode="&#xb7;" horiz-adv-x="526" 
d="M362 467h-198v203h198v-203z" />
    <glyph glyph-name="cedilla" unicode="&#xb8;" horiz-adv-x="466" 
d="M444 -199q0 -98 -70 -153q-70 -56 -160 -56q-91 0 -210 17l41 133q131 -16 148 -16q98 0 98 71q0 39 -31 55t-133 17l43 162h149l-20 -86q70 0 108 -45q37 -46 37 -99z" />
    <glyph glyph-name="onesuperior" unicode="&#xb9;" horiz-adv-x="714" 
d="M467 641h-133v561l-135 -106l-37 94l182 135h123v-684z" />
    <glyph glyph-name="ordmasculine" unicode="&#xba;" 
d="M672 1081q0 93 -34 137t-110 44q-147 0 -147 -184q-1 -184 145 -185q146 0 146 188zM795 1081q0 -121 -65 -197t-202 -77q-136 0 -202 77q-66 78 -66 196t66 194t204 76t201 -74q64 -74 64 -195z" />
    <glyph glyph-name="guillemotright" unicode="&#xbb;" horiz-adv-x="792" 
d="M418 553l-191 -365h-170l197 369l-199 369h172zM737 553l-190 -365h-172l196 369l-198 369h174z" />
    <glyph glyph-name="onequarter" unicode="&#xbc;" horiz-adv-x="1605" 
d="M1151 276v281l-227 -281h227zM303 641v561l-133 -106l-39 94l184 135h109l14 -684h-135zM1169 1288l-745 -1288h-162l744 1288h163zM1393 180h-109v-180h-133v180h-295l-43 96l332 408h139v-408h109v-96z" />
    <glyph glyph-name="onehalf" unicode="&#xbd;" horiz-adv-x="1605" 
d="M432 641h-133v561l-135 -106l-37 94l182 135h123v-684zM1163 1288l-743 -1288h-164l741 1288h166zM1460 0h-491l-37 102q20 16 82 60q223 158 279 242q28 42 28 96q0 105 -141 102q-74 0 -187 -53l-37 104q131 45 237 45q107 0 185 -50t78 -163q0 -69 -39 -117t-61 -72
t-67 -58q-44 -34 -76 -61q-32 -26 -111 -79h358v-98z" />
    <glyph glyph-name="threequarters" unicode="&#xbe;" horiz-adv-x="1605" 
d="M1194 276v281l-227 -281h227zM608 834q0 -109 -87 -155t-213 -46t-210 26l37 105q90 -37 171 -37q169 0 169 109q0 76 -60 102t-179 25v92q112 -1 166 21t54 81t-32 77q-33 18 -96 19q-63 0 -178 -51l-37 107q88 41 214 41q263 0 263 -185q0 -71 -47 -109t-119 -46
q78 -10 131 -52t53 -124zM1233 1288l-744 -1288h-163l741 1288h166zM1436 180h-109v-180h-133v180h-295l-43 96l332 408h139v-408h109v-96z" />
    <glyph glyph-name="questiondown" unicode="&#xbf;" horiz-adv-x="890" 
d="M301 303q0 -166 169 -166q81 0 173 23t148 49l36 -168q-176 -61 -333 -61q-278 0 -356 156q-34 69 -34 154t35 141t83 97t97 80q119 95 119 193v176h187v-186q0 -77 -34 -139t-81 -101t-94 -74q-115 -86 -115 -174zM633 1126h-205v199h205v-199z" />
    <glyph glyph-name="Agrave" unicode="&#xc0;" horiz-adv-x="1345" 
d="M887 1409h-135l-254 240h184zM874 528l-192 559l-207 -559h399zM1282 0h-225l-131 375h-508l-139 -375h-216l539 1325h180z" />
    <glyph glyph-name="Aacute" unicode="&#xc1;" horiz-adv-x="1345" 
d="M887 1647l-256 -240h-133l196 240h193zM874 528l-192 559l-207 -559h399zM1282 0h-225l-131 375h-508l-139 -375h-216l539 1325h180z" />
    <glyph glyph-name="Acircumflex" unicode="&#xc2;" horiz-adv-x="1345" 
d="M946 1425h-141l-117 140l-123 -140h-139l192 234h140zM874 528l-192 559l-207 -559h399zM1282 0h-225l-131 375h-508l-139 -375h-216l539 1325h180z" />
    <glyph glyph-name="Atilde" unicode="&#xc3;" horiz-adv-x="1345" 
d="M808 1397q-60 0 -122 43t-90 43q-76 0 -100 -84l-105 49q37 82 82 113t107 31t122 -43q60 -42 94 -42t60 28t35 60l106 -47q-23 -68 -77 -110q-52 -42 -112 -41zM874 528l-192 559l-207 -559h399zM1282 0h-225l-131 375h-508l-139 -375h-216l539 1325h180z" />
    <glyph glyph-name="Adieresis" unicode="&#xc4;" horiz-adv-x="1345" 
d="M614 1399h-172v170h172v-170zM932 1399h-172v170h172v-170zM874 528l-192 559l-207 -559h399zM1282 0h-225l-131 375h-508l-139 -375h-216l539 1325h180z" />
    <glyph glyph-name="Aring" unicode="&#xc5;" horiz-adv-x="1345" 
d="M788 1544q0 39 -24 66q-25 26 -66 26q-40 0 -66 -28t-26 -63q0 -37 27 -65t67 -28t64 26t24 66zM868 1543q0 -71 -49 -120t-120 -49t-121 49t-50 119t50 119t120 49q72 0 121 -48t49 -119zM874 528l-192 559l-207 -559h399zM1282 0h-225l-131 375h-508l-139 -375h-216
l539 1325h180z" />
    <glyph glyph-name="AE" unicode="&#xc6;" horiz-adv-x="1933" 
d="M973 528l-90 557l-301 -557h391zM1763 0h-706l-62 375h-495l-205 -375h-232l752 1325h930v-158h-690l71 -403h576v-158h-547l80 -448h528v-158z" />
    <glyph glyph-name="Ccedilla" unicode="&#xc7;" horiz-adv-x="1144" 
d="M618 -272q98 0 99 69q0 39 -31 55t-133 17l29 104q-457 70 -457 689q0 293 133 491t459 199q172 0 336 -54l-66 -174q-158 68 -270 68q-381 0 -381 -528q0 -262 85 -402t284 -141q104 0 296 78l66 -174q-172 -61 -340 -64l-4 -16q70 0 110 -45t39 -99q0 -98 -70 -153
q-70 -56 -162 -56q-91 0 -210 17l41 133q115 -14 147 -14z" />
    <glyph glyph-name="Egrave" unicode="&#xc8;" horiz-adv-x="1144" 
d="M745 1409h-135l-254 240h193zM975 0h-778v1325h759v-158h-555v-403h512v-158h-512v-448h574v-158z" />
    <glyph glyph-name="Eacute" unicode="&#xc9;" horiz-adv-x="1144" 
d="M766 1626l-256 -240h-133l196 240h193zM975 0h-778v1325h759v-158h-555v-403h512v-158h-512v-448h574v-158z" />
    <glyph glyph-name="Ecircumflex" unicode="&#xca;" horiz-adv-x="1144" 
d="M838 1413h-142l-116 139l-123 -139h-140l193 234h139zM975 0h-778v1325h759v-158h-555v-403h512v-158h-512v-448h574v-158z" />
    <glyph glyph-name="Edieresis" unicode="&#xcb;" horiz-adv-x="1144" 
d="M518 1399h-172v170h172v-170zM836 1399h-172v170h172v-170zM975 0h-778v1325h759v-158h-555v-403h512v-158h-512v-448h574v-158z" />
    <glyph glyph-name="Igrave" unicode="&#xcc;" horiz-adv-x="548" 
d="M434 1417h-135l-254 240h193zM377 0h-205v1325h205v-1325z" />
    <glyph glyph-name="Iacute" unicode="&#xcd;" horiz-adv-x="550" 
d="M479 1657l-256 -240h-133l197 240h192zM379 0h-205v1325h205v-1325z" />
    <glyph glyph-name="Icircumflex" unicode="&#xce;" horiz-adv-x="550" 
d="M535 1417h-142l-117 139l-122 -139h-140l193 234h139zM377 0h-205v1325h205v-1325z" />
    <glyph glyph-name="Idieresis" unicode="&#xcf;" horiz-adv-x="548" 
d="M203 1452h-172v170h172v-170zM520 1452h-172v170h172v-170zM377 0h-205v1325h205v-1325z" />
    <glyph glyph-name="Eth" unicode="&#xd0;" horiz-adv-x="1333" 
d="M575 1167h-174v-350h256v-143h-256v-516h193q203 0 303 114t100 407q0 292 -110 394q-57 53 -130 73t-182 21zM1208 667q0 -357 -148 -512t-485 -155h-378v674h-138v143h138v508h378q336 0 485 -150q148 -151 148 -508z" />
    <glyph glyph-name="Ntilde" unicode="&#xd1;" horiz-adv-x="1435" 
d="M820 1395q-60 0 -122 43t-90 43q-76 0 -100 -84l-105 49q37 82 82 113t107 31t122 -43q62 -42 95 -42t59 28t35 60l107 -47q-23 -68 -77 -110q-53 -42 -113 -41zM1239 0h-303l-547 1083v-1083h-192v1325h299l542 -1083v1083h201v-1325z" />
    <glyph glyph-name="Ograve" unicode="&#xd2;" horiz-adv-x="1439" 
d="M846 1409h-135l-254 240h192zM1104 660q0 268 -89 400t-293 132t-295 -132t-91 -404t90 -404q90 -131 297 -131t294 136t87 403zM1315 657q0 -319 -140 -506t-452 -188q-598 0 -598 694q0 317 143 505t457 188q590 -1 590 -693z" />
    <glyph glyph-name="Oacute" unicode="&#xd3;" horiz-adv-x="1439" 
d="M948 1647l-256 -240h-133l197 240h192zM1104 660q0 268 -89 400t-293 132t-295 -132t-91 -404t90 -404q90 -131 297 -131t294 136t87 403zM1315 657q0 -319 -140 -506t-452 -188q-598 0 -598 694q0 317 143 505t457 188q590 -1 590 -693z" />
    <glyph glyph-name="Ocircumflex" unicode="&#xd4;" horiz-adv-x="1439" 
d="M979 1413h-141l-117 139l-123 -139h-139l192 234h140zM1104 660q0 268 -89 400t-293 132t-295 -132t-91 -404t90 -404q90 -131 297 -131t294 136t87 403zM1315 657q0 -319 -140 -506t-452 -188q-598 0 -598 694q0 317 143 505t457 188q590 -1 590 -693z" />
    <glyph glyph-name="Otilde" unicode="&#xd5;" horiz-adv-x="1439" 
d="M840 1395q-60 0 -121 43t-90 43q-76 0 -101 -84l-104 49q37 82 82 113q44 31 106 31t123 -43q61 -42 94 -42t59 28t36 60l106 -47q-23 -68 -77 -110q-53 -42 -113 -41zM1104 660q0 268 -89 400t-293 132t-295 -132t-91 -404t90 -404q90 -131 297 -131t294 136t87 403z
M1315 657q0 -319 -140 -506t-452 -188q-598 0 -598 694q0 317 143 505t457 188q590 -1 590 -693z" />
    <glyph glyph-name="Odieresis" unicode="&#xd6;" horiz-adv-x="1439" 
d="M649 1397h-172v170h172v-170zM967 1397h-172v170h172v-170zM1104 660q0 268 -89 400t-293 132t-295 -132t-91 -404t90 -404q90 -131 297 -131t294 136t87 403zM1315 657q0 -319 -140 -506t-452 -188q-598 0 -598 694q0 317 143 505t457 188q590 -1 590 -693z" />
    <glyph glyph-name="multiply" unicode="&#xd7;" 
d="M961 172l-115 -115l-318 318l-317 -318l-115 115l318 317l-318 318l115 115l317 -318l318 318l115 -115l-318 -318z" />
    <glyph glyph-name="Oslash" unicode="&#xd8;" horiz-adv-x="1439" 
d="M1104 657q0 170 -35 277l-610 -717q90 -96 264 -96q207 0 294 136t87 400zM723 1192q-205 0 -296 -132t-91 -403q0 -168 31 -268l608 715q-92 88 -252 88zM1315 639q0 -301 -140 -488t-452 -188q-240 0 -383 117l-174 -205l-133 123l184 217q-92 163 -92 461t143 486
t457 188q229 0 369 -107l155 184l135 -122l-167 -197q98 -168 98 -469z" />
    <glyph glyph-name="Ugrave" unicode="&#xd9;" horiz-adv-x="1435" 
d="M854 1409h-135l-254 240h192zM1239 485q0 -522 -508 -522q-276 0 -405 129t-129 397v836h204v-815q0 -225 81 -307t241 -82q159 0 235 90t76 299v815h205v-840z" />
    <glyph glyph-name="Uacute" unicode="&#xda;" horiz-adv-x="1435" 
d="M954 1628l-256 -239h-133l197 239h192zM1239 485q0 -522 -508 -522q-276 0 -405 129t-129 397v836h204v-815q0 -225 81 -307t241 -82q159 0 235 90t76 299v815h205v-840z" />
    <glyph glyph-name="Ucircumflex" unicode="&#xdb;" horiz-adv-x="1435" 
d="M977 1413h-141l-117 139l-123 -139h-139l192 234h139zM1239 485q0 -522 -508 -522q-276 0 -405 129t-129 397v836h204v-815q0 -225 81 -307t241 -82q159 0 235 90t76 299v815h205v-840z" />
    <glyph glyph-name="Udieresis" unicode="&#xdc;" horiz-adv-x="1435" 
d="M655 1399h-172v170h172v-170zM973 1399h-172v170h172v-170zM1239 485q0 -522 -508 -522q-276 0 -405 129t-129 397v836h204v-815q0 -225 81 -307t241 -82q159 0 235 90t76 299v815h205v-840z" />
    <glyph glyph-name="Yacute" unicode="&#xdd;" horiz-adv-x="1208" 
d="M776 1657l-256 -240h-133l197 240h192zM711 0h-205v588l-475 737h231l354 -553l345 553h217l-467 -729v-596z" />
    <glyph glyph-name="Thorn" unicode="&#xde;" horiz-adv-x="1183" 
d="M627 444q119 0 180 54t61 189q0 134 -64 181q-65 47 -188 47h-215v-471h226zM1077 686q0 -399 -434 -399h-242v-287h-204v1325h204v-252h220q456 0 456 -387z" />
    <glyph glyph-name="germandbls" unicode="&#xdf;" horiz-adv-x="1056" 
d="M961 250q0 -76 -33 -152q-60 -138 -210 -200q-127 -54 -304 -56l61 158q139 0 219 72t80 202q0 171 -131 252q-63 40 -104 56t-105 34v146q83 56 127 96q90 82 88 186q0 78 -50 119t-124 41t-114 -47t-39 -170v-987h-183v965q0 381 342 381q150 0 252 -73
q103 -73 103 -235t-163 -279q-21 -15 -53 -35t-36 -22q8 -4 47 -18t58 -24l61 -30q65 -35 119 -94q92 -98 92 -286z" />
    <glyph glyph-name="agrave" unicode="&#xe0;" horiz-adv-x="1026" 
d="M614 1085h-135l-254 240h193zM686 451h-57q-189 1 -267 -47t-77 -150q0 -68 51 -102t137 -35q145 -1 213 110v224zM731 0q0 4 -16 51t-17 51q-110 -127 -264 -127t-248 69q-94 68 -94 214t114 232t394 88h84v59q0 182 -159 182t-330 -82l-64 152q195 72 375 72
q362 0 362 -299v-375q0 -60 14 -154t19 -133h-170z" />
    <glyph glyph-name="aacute" unicode="&#xe1;" horiz-adv-x="1026" 
d="M721 1325l-256 -240h-133l196 240h193zM686 451h-57q-189 1 -267 -47t-77 -150q0 -68 51 -102t137 -35q145 -1 213 110v224zM731 0q0 4 -16 51t-17 51q-110 -127 -264 -127t-248 69q-94 68 -94 214t114 232t394 88h84v59q0 182 -159 182t-330 -82l-64 152q195 72 375 72
q362 0 362 -299v-375q0 -60 14 -154t19 -133h-170z" />
    <glyph glyph-name="acircumflex" unicode="&#xe2;" horiz-adv-x="1026" 
d="M739 1092h-141l-117 139l-123 -139h-139l193 233h139zM686 451h-57q-189 1 -267 -47t-77 -150q0 -68 51 -102t137 -35q145 -1 213 110v224zM731 0q0 4 -16 51t-17 51q-110 -127 -264 -127t-248 69q-94 68 -94 214t114 232t394 88h84v59q0 182 -159 182t-330 -82l-64 152
q195 72 375 72q362 0 362 -299v-375q0 -60 14 -154t19 -133h-170z" />
    <glyph glyph-name="atilde" unicode="&#xe3;" horiz-adv-x="1026" 
d="M596 1077q-60 0 -120 43q-62 43 -91 43q-76 0 -100 -84l-105 49q37 82 82 113t125 31q43 0 105 -42t90 -42q63 0 104 88l100 -47q-22 -68 -76 -110t-114 -42zM686 451h-57q-189 1 -267 -47t-77 -150q0 -68 51 -102t137 -35q145 -1 213 110v224zM731 0q0 4 -16 51t-17 51
q-110 -127 -264 -127t-248 69q-94 68 -94 214t114 232t394 88h84v59q0 182 -159 182t-330 -82l-64 152q195 72 375 72q362 0 362 -299v-375q0 -60 14 -154t19 -133h-170z" />
    <glyph glyph-name="adieresis" unicode="&#xe4;" horiz-adv-x="1026" 
d="M430 1096h-172v182h172v-182zM752 1096h-174v182h174v-182zM686 451h-57q-189 1 -267 -47t-77 -150q0 -68 51 -102t137 -35q145 -1 213 110v224zM731 0q0 4 -16 51t-17 51q-110 -127 -264 -127t-248 69q-94 68 -94 214t114 232t394 88h84v59q0 182 -159 182t-330 -82
l-64 152q195 72 375 72q362 0 362 -299v-375q0 -60 14 -154t19 -133h-170z" />
    <glyph glyph-name="aring" unicode="&#xe5;" horiz-adv-x="1026" 
d="M582 1208q0 39 -25 66q-25 26 -65 26t-67 -28q-26 -28 -26 -63q0 -37 27 -65t68 -28q40 0 64 26t24 66zM492 1374q72 0 121 -48t49 -119t-50 -120t-120 -49t-120 49t-50 119t49 119t121 49zM686 451h-57q-189 1 -267 -47t-77 -150q0 -68 51 -102t137 -35q145 -1 213 110
v224zM731 0q0 4 -16 51t-17 51q-110 -127 -264 -127t-248 69q-94 68 -94 214t114 232t394 88h84v59q0 182 -159 182t-330 -82l-64 152q195 72 375 72q362 0 362 -299v-375q0 -60 14 -154t19 -133h-170z" />
    <glyph glyph-name="ae" unicode="&#xe6;" horiz-adv-x="1611" 
d="M688 442h-59q-189 0 -267 -43t-77 -145q0 -68 51 -102t128 -35q77 0 134 40t90 93v192zM1331 535q-8 285 -237 284q-90 0 -153 -69q-62 -70 -71 -215h461zM1516 397h-646q20 -285 248 -284q125 0 285 80l59 -144q-160 -74 -360 -74q-121 1 -208 51t-122 128
q-136 -178 -314 -178t-272 68t-94 214t114 232t394 88h86v59q0 182 -160 182t-331 -82l-64 152q195 72 395 72t283 -134q106 133 283 134q238 -1 331 -141t93 -423z" />
    <glyph glyph-name="ccedilla" unicode="&#xe7;" horiz-adv-x="903" 
d="M711 -199q0 -94 -70 -151q-70 -58 -160 -58t-209 17l33 127q115 -14 157 -14t73 18t30 57q0 39 -34 55t-136 17l31 117q-162 30 -248 156t-86 339t113 345t332 132q129 0 276 -57l-55 -158q-125 74 -223 74q-133 0 -193 -87t-61 -261q1 -174 65 -262t173 -88t247 76
l53 -160q-92 -41 -246 -58l-8 -36q70 0 108 -44t38 -96z" />
    <glyph glyph-name="egrave" unicode="&#xe8;" horiz-adv-x="1026" 
d="M641 1085h-135l-254 240h192zM752 535q-8 285 -242 284q-90 0 -154 -70q-63 -71 -71 -214h467zM930 397h-643q20 -285 248 -284q125 0 284 80l60 -144q-160 -74 -365 -74q-206 -1 -314 137t-108 336t84 343q45 77 130 123t202 47q238 1 330 -139t92 -425z" />
    <glyph glyph-name="eacute" unicode="&#xe9;" horiz-adv-x="1026" 
d="M750 1325l-256 -240h-134l197 240h193zM752 535q-8 285 -242 284q-90 0 -154 -70q-63 -71 -71 -214h467zM930 397h-643q20 -285 248 -284q125 0 284 80l60 -144q-160 -74 -365 -74q-206 -1 -314 137t-108 336t84 343q45 77 130 123t202 47q238 1 330 -139t92 -425z" />
    <glyph glyph-name="ecircumflex" unicode="&#xea;" horiz-adv-x="1026" 
d="M780 1092h-141l-117 139l-123 -139h-139l193 233h139zM752 535q-8 285 -242 284q-90 0 -154 -70q-63 -71 -71 -214h467zM930 397h-643q20 -285 248 -284q125 0 284 80l60 -144q-160 -74 -365 -74q-206 -1 -314 137t-108 336t84 343q45 77 130 123t202 47q238 1 330 -139
t92 -425z" />
    <glyph glyph-name="edieresis" unicode="&#xeb;" horiz-adv-x="1026" 
d="M455 1114h-172v170h172v-170zM772 1114h-172v170h172v-170zM752 535q-8 285 -242 284q-90 0 -154 -70q-63 -71 -71 -214h467zM930 397h-643q20 -285 248 -284q125 0 284 80l60 -144q-160 -74 -365 -74q-206 -1 -314 137t-108 336t84 343q45 77 130 123t202 47
q238 1 330 -139t92 -425z" />
    <glyph glyph-name="igrave" unicode="&#xec;" horiz-adv-x="466" 
d="M326 0h-185v936h185v-936zM408 1085h-136l-254 240h193z" />
    <glyph glyph-name="iacute" unicode="&#xed;" horiz-adv-x="466" 
d="M326 0h-185v936h185v-936zM428 1325l-256 -240h-133l197 240h192z" />
    <glyph glyph-name="icircumflex" unicode="&#xee;" horiz-adv-x="466" 
d="M504 1092h-142l-116 139l-123 -139h-139l192 233h139zM324 0h-185v936h185v-936z" />
    <glyph glyph-name="idieresis" unicode="&#xef;" horiz-adv-x="466" 
d="M326 0h-185v936h185v-936zM160 1153h-172v170h172v-170zM477 1153h-172v170h172v-170z" />
    <glyph glyph-name="eth" unicode="&#xf0;" 
d="M299 375q0 -117 58 -186t165 -69q106 0 168 80t62 289q-70 180 -246 181q-133 0 -173 -96q-34 -82 -34 -199zM961 580q0 -612 -451 -613q-178 0 -298 120q-120 119 -120 313t102 309t302 114q74 0 154 -48t120 -130q0 336 -219 461l-168 -113l-135 78l139 96
q-39 10 -172 25l-65 174q240 -16 403 -86l141 98l133 -78l-137 -94q271 -186 271 -626z" />
    <glyph glyph-name="ntilde" unicode="&#xf1;" horiz-adv-x="1042" 
d="M633 1077q-59 0 -121 43t-90 43q-76 0 -100 -84l-105 49q37 82 82 113t125 31q43 0 104 -42t90 -42q66 0 103 88l102 -47q-23 -68 -77 -110t-113 -42zM903 0h-182v592q0 109 -34 168t-125 59q-154 0 -240 -186v-633h-183v737q0 45 -10 112t-12 87h166l32 -131l17 22
q65 73 88 85q64 36 93 43q30 7 58 8q184 1 258 -97t74 -276v-590z" />
    <glyph glyph-name="ograve" unicode="&#xf2;" horiz-adv-x="1058" 
d="M686 1085h-135l-254 240h192zM778 473q0 176 -57 261t-191 85q-250 0 -250 -351t250 -351q248 0 248 356zM967 472q-1 -222 -105 -360t-332 -138t-333 138t-105 356t106 356t333 138q228 0 332 -134t104 -356z" />
    <glyph glyph-name="oacute" unicode="&#xf3;" horiz-adv-x="1058" 
d="M754 1325l-256 -240h-133l196 240h193zM778 473q0 176 -57 261t-191 85q-250 0 -250 -351t250 -351q248 0 248 356zM967 472q-1 -222 -105 -360t-332 -138t-333 138t-105 356t106 356t333 138q228 0 332 -134t104 -356z" />
    <glyph glyph-name="ocircumflex" unicode="&#xf4;" horiz-adv-x="1058" 
d="M793 1092h-142l-116 139l-123 -139h-140l193 233h139zM778 473q0 176 -57 261t-191 85q-250 0 -250 -351t250 -351q248 0 248 356zM967 472q-1 -222 -105 -360t-332 -138t-333 138t-105 356t106 356t333 138q228 0 332 -134t104 -356z" />
    <glyph glyph-name="otilde" unicode="&#xf5;" horiz-adv-x="1058" 
d="M624 1077q-60 0 -120 43q-61 43 -90 43q-76 0 -101 -84l-104 49q37 82 82 113t125 31q43 0 104 -42t94 -42t59 28t36 60l106 -47q-23 -68 -77 -110t-114 -42zM778 473q0 176 -57 261t-191 85q-250 0 -250 -351t250 -351q248 0 248 356zM967 472q-1 -222 -105 -360
t-332 -138t-333 138t-105 356t106 356t333 138q228 0 332 -134t104 -356z" />
    <glyph glyph-name="odieresis" unicode="&#xf6;" horiz-adv-x="1058" 
d="M457 1114h-172v170h172v-170zM774 1114h-172v170h172v-170zM778 473q0 176 -57 261t-191 85q-250 0 -250 -351t250 -351q248 0 248 356zM967 472q-1 -222 -105 -360t-332 -138t-333 138t-105 356t106 356t333 138q228 0 332 -134t104 -356z" />
    <glyph glyph-name="divide" unicode="&#xf7;" 
d="M629 25h-203v196h203v-196zM971 383h-889v133h889v-133zM629 688h-203v197h203v-197z" />
    <glyph glyph-name="oslash" unicode="&#xf8;" horiz-adv-x="1058" 
d="M778 473q0 80 -10 125l-393 -426q59 -55 155 -55q248 0 248 356zM530 819q-250 0 -249 -346q0 -78 14 -133l391 424q-55 55 -156 55zM1028 881l-117 -127q55 -113 56 -281q-1 -223 -105 -361t-332 -139q-162 0 -266 78l-110 -119l-123 121l121 131q-60 118 -60 310
t106 330t332 139q162 0 265 -80l108 118z" />
    <glyph glyph-name="ugrave" unicode="&#xf9;" horiz-adv-x="1028" 
d="M139 346v590h183v-592q0 -70 9 -114t49 -78t112 -35q131 0 215 186v633h182v-737q0 -45 10 -112t12 -87h-166l-32 131q-17 -35 -63 -74q-46 -40 -82 -61t-103 -23q-326 0 -326 373zM659 1085h-135l-254 240h193z" />
    <glyph glyph-name="uacute" unicode="&#xfa;" horiz-adv-x="1028" 
d="M735 1325l-256 -240h-133l197 240h192zM139 346v590h183v-592q0 -70 9 -114t49 -78t112 -35q131 0 215 186v633h182v-737q0 -45 10 -112t12 -87h-166l-32 131q-17 -35 -63 -74q-46 -40 -82 -61t-103 -23q-326 0 -326 373z" />
    <glyph glyph-name="ucircumflex" unicode="&#xfb;" horiz-adv-x="1028" 
d="M772 1092h-141l-117 139l-123 -139h-139l192 233h140zM139 346v590h183v-592q0 -70 9 -114t49 -78t112 -35q131 0 215 186v633h182v-737q0 -45 10 -112t12 -87h-166l-32 131q-17 -35 -63 -74q-46 -40 -82 -61t-103 -23q-326 0 -326 373z" />
    <glyph glyph-name="udieresis" unicode="&#xfc;" horiz-adv-x="1028" 
d="M440 1114h-172v170h172v-170zM586 1114v170h159l13 -170h-172zM139 346v590h183v-592q0 -70 9 -114t49 -78t112 -35q131 0 215 186v633h182v-737q0 -45 10 -112t12 -87h-166l-32 131q-17 -35 -63 -74q-46 -40 -82 -61t-103 -23q-326 0 -326 373z" />
    <glyph glyph-name="yacute" unicode="&#xfd;" horiz-adv-x="1040" 
d="M727 1325l-256 -240h-133l197 240h192zM963 936l-392 -1086q-43 -120 -115 -194t-206 -121l-60 154q145 39 181 133l82 217l-375 897h196l269 -686l231 686h189z" />
    <glyph glyph-name="thorn" unicode="&#xfe;" horiz-adv-x="1046" 
d="M522 117q244 0 244 351t-217 351q-59 0 -109 -36q-50 -35 -74 -69q-22 -34 -49 -85v-375q29 -63 84 -100t121 -37zM954 473q0 -215 -104 -356t-303 -142q-78 0 -138 38t-94 89l-32 -467h-166q23 176 22 652v1059h183v-541q106 156 251 156q197 -1 289 -137t92 -351z" />
    <glyph glyph-name="ydieresis" unicode="&#xff;" horiz-adv-x="1040" 
d="M467 1120h-172v170h172v-170zM784 1120h-172v170h172v-170zM963 936l-392 -1086q-43 -120 -115 -194t-206 -121l-60 154q145 39 181 133l82 217l-375 897h196l269 -686l231 686h189z" />
    <glyph glyph-name="dotlessi" unicode="&#x131;" horiz-adv-x="466" 
d="M326 0h-185v936h185v-936z" />
    <glyph glyph-name="Lslash" unicode="&#x141;" horiz-adv-x="993" 
d="M979 0h-782v526l-136 -90l-90 139l226 150v600h204v-463l160 107l90 -140l-250 -167v-498h578v-164z" />
    <glyph glyph-name="lslash" unicode="&#x142;" horiz-adv-x="548" 
d="M377 0h-205v512l-115 -76l-90 139l205 138v612h205v-475l127 86l90 -141l-217 -144v-651z" />
    <glyph glyph-name="OE" unicode="&#x152;" horiz-adv-x="1998" 
d="M1083 660q0 272 -81 402q-80 130 -282 130t-293 -132t-91 -404t90 -404q90 -131 294 -131t284 134q79 134 79 405zM1829 0h-873q-100 -37 -233 -37q-598 0 -598 694q0 317 143 505t457 188q111 0 199 -25h886v-158h-651q113 -127 131 -403h477v-158h-475
q-6 -295 -131 -448h668v-158z" />
    <glyph glyph-name="oe" unicode="&#x153;" horiz-adv-x="1703" 
d="M778 473q0 176 -57 261t-191 85q-250 0 -250 -351t250 -351q248 0 248 356zM1425 535q-8 285 -237 284q-90 0 -154 -70q-63 -71 -71 -214h462zM1608 397h-643q20 -285 247 -284q125 0 285 80l59 -144q-160 -74 -368 -74t-316 172q-106 -174 -338 -174q-232 1 -337 139
t-105 356t106 356t338 138q234 0 336 -169q100 168 326 168q226 1 318 -139t92 -425z" />
    <glyph glyph-name="Scaron" unicode="&#x160;" horiz-adv-x="1171" 
d="M838 1657l-195 -234h-139l-187 234h140l116 -137l123 137h142zM610 1192q-266 0 -266 -199q0 -55 40 -97t84 -62t132 -52q205 -72 283 -129q153 -110 153 -309q0 -381 -524 -381q-152 0 -377 62l66 174q207 -78 313 -78q313 0 313 219q0 81 -52 131t-160 93
q-27 11 -97 37q-232 87 -308 174q-75 87 -75 214t71 210q129 151 406 151q180 0 342 -56l-65 -174q-144 72 -279 72z" />
    <glyph glyph-name="scaron" unicode="&#x161;" horiz-adv-x="886" 
d="M698 1325l-194 -233h-139l-187 233h139l117 -137l123 137h141zM465 819q-182 0 -182 -123q-1 -34 27 -58t58 -36t91 -33q170 -53 231 -98q105 -78 105 -219q-1 -141 -107 -210t-277 -69t-329 64l63 151q8 -2 23 -8q145 -59 231 -63h29q98 0 138 35t40 100q0 31 -18 58
t-75 49q-57 21 -123 43t-104 38q-40 16 -91 50q-101 67 -101 200q0 100 58 164t138 86q78 23 192 23t298 -62l-65 -153q-154 71 -250 71z" />
    <glyph glyph-name="Ydieresis" unicode="&#x178;" horiz-adv-x="1208" 
d="M551 1470h-170v172h170v-172zM862 1470h-168v172h168v-172zM711 0h-205v588l-475 737h231l354 -553l345 553h217l-467 -729v-596z" />
    <glyph glyph-name="Zcaron" unicode="&#x17d;" horiz-adv-x="1126" 
d="M823 1649l-194 -234h-140l-186 234h139l117 -138l123 138h141zM1020 160v-160h-873l-57 168l725 997h-649v160h813l57 -168l-725 -997h709z" />
    <glyph glyph-name="zcaron" unicode="&#x17e;" horiz-adv-x="874" 
d="M688 1325l-194 -233h-140l-186 233h139l117 -137l123 137h141zM782 141v-141h-655l-64 152l541 643h-483v141h624l66 -152l-539 -643h510z" />
    <glyph glyph-name="florin" unicode="&#x192;" 
d="M848 1204q-211 -16 -240 -178l-16 -90h172l-21 -127h-172l-204 -1178h-166l202 1178h-141l23 127h141l16 98q28 171 157 244q98 55 239 84z" />
    <glyph glyph-name="circumflex" unicode="&#x2c6;" horiz-adv-x="466" 
d="M494 1092h-142l-116 139l-123 -139h-140l193 233h139z" />
    <glyph glyph-name="caron" unicode="&#x2c7;" horiz-adv-x="466" 
d="M494 1325l-195 -233h-139l-187 233h140l116 -137l123 137h142z" />
    <glyph glyph-name="breve" unicode="&#x2d8;" horiz-adv-x="466" 
d="M230 1024q-106 0 -190 60q-83 60 -110 141l109 61q13 -51 69 -93t127 -42t123 42t70 93l107 -61q-31 -77 -115 -139t-190 -62z" />
    <glyph glyph-name="dotaccent" unicode="&#x2d9;" horiz-adv-x="466" 
d="M332 1145h-197v180h197v-180z" />
    <glyph glyph-name="ring" unicode="&#x2da;" horiz-adv-x="466" 
d="M283 1208q0 39 -25 66q-26 26 -66 26t-66 -28t-26 -63q0 -37 27 -65t68 -28t65 26t23 66zM193 1374q73 0 121 -48t48 -119t-49 -120t-119 -49t-121 49q-50 49 -50 119t49 119t121 49z" />
    <glyph glyph-name="ogonek" unicode="&#x2db;" horiz-adv-x="466" 
d="M257 -406q-108 0 -168 54t-60 149q0 61 39 115t74 80q36 25 71 41h221q-96 -43 -172 -105t-76 -110q0 -86 97 -86q33 0 67 10t45 12l58 -137q-88 -23 -196 -23z" />
    <glyph glyph-name="tilde" unicode="&#x2dc;" horiz-adv-x="466" 
d="M346 1077q-60 0 -120 43q-62 43 -91 43q-76 0 -100 -84l-105 49q37 82 82 113t125 31q43 0 105 -42t94 -42t58 28t36 60l107 -47q-23 -68 -77 -110t-114 -42z" />
    <glyph glyph-name="hungarumlaut" unicode="&#x2dd;" horiz-adv-x="466" 
d="M334 1323l-254 -240h-133l196 240h191zM623 1323l-254 -240h-136l197 240h193z" />
    <glyph glyph-name="Delta" unicode="&#x394;" horiz-adv-x="1523" 
d="M1184 143l-420 1004l-420 -1004h840zM1413 0h-1302l571 1325h160z" />
    <glyph glyph-name="Delta" unicode="&#x2206;" horiz-adv-x="1523" 
d="M1184 143l-420 1004l-420 -1004h840zM1413 0h-1302l571 1325h160z" />
    <glyph glyph-name="Omega" unicode="&#x3a9;" horiz-adv-x="1447" 
d="M985 135h287v-135h-459v276q161 27 225 144t64 339t-106 327q-106 106 -261 106q-156 0 -273 -97q-118 -97 -118 -358q0 -205 66 -321t225 -140v-276h-461v135h289v58q-168 51 -250 201t-82 339q0 291 157 454q156 163 436 163t436 -163t157 -437q0 -274 -139 -435
q-78 -88 -193 -122v-58z" />
    <glyph glyph-name="Omega" unicode="&#x2126;" horiz-adv-x="1447" 
d="M985 135h287v-135h-459v276q161 27 225 144t64 339t-106 327q-106 106 -261 106q-156 0 -273 -97q-118 -97 -118 -358q0 -205 66 -321t225 -140v-276h-461v135h289v58q-168 51 -250 201t-82 339q0 291 157 454q156 163 436 163t436 -163t157 -437q0 -274 -139 -435
q-78 -88 -193 -122v-58z" />
    <glyph glyph-name="pi" unicode="&#x3c0;" 
d="M670 197v594h-297v-791h-160v791h-166v145h934v-145h-152v-586q0 -97 40 -143t151 -62l-37 -133q-313 61 -313 330z" />
    <glyph glyph-name="endash" unicode="&#x2013;" horiz-adv-x="1024" 
d="M1026 416h-1028v147h1028v-147z" />
    <glyph glyph-name="emdash" unicode="&#x2014;" horiz-adv-x="2048" 
d="M2050 403h-2052v160h2052v-160z" />
    <glyph glyph-name="quoteleft" unicode="&#x2018;" horiz-adv-x="526" 
d="M424 1327l-174 -385h-158l203 385h129z" />
    <glyph glyph-name="quoteright" unicode="&#x2019;" horiz-adv-x="526" 
d="M426 1327l-199 -385h-131l172 385h158z" />
    <glyph glyph-name="quotesinglbase" unicode="&#x201a;" horiz-adv-x="526" 
d="M426 205l-199 -385h-131l172 385h158z" />
    <glyph glyph-name="quotedblleft" unicode="&#x201c;" horiz-adv-x="792" 
d="M414 1327l-174 -385h-158l203 385h129zM711 1327l-174 -385h-158l201 385h131z" />
    <glyph glyph-name="quotedblright" unicode="&#x201d;" horiz-adv-x="792" 
d="M414 1327l-201 -385h-131l174 385h158zM711 1327l-203 -385h-131l174 385h160z" />
    <glyph glyph-name="quotedblbase" unicode="&#x201e;" horiz-adv-x="792" 
d="M414 205l-201 -385h-131l174 385h158zM711 205l-203 -385h-131l174 385h160z" />
    <glyph glyph-name="dagger" unicode="&#x2020;" 
d="M977 682h-369v-1051h-164v1051h-368v143h368v445h164v-445h369v-143z" />
    <glyph glyph-name="daggerdbl" unicode="&#x2021;" 
d="M977 328h-369v-328h-164v328h-368v145h368v387h-368v144h368v321h164v-321h369v-144h-369v-387h369v-145z" />
    <glyph glyph-name="bullet" unicode="&#x2022;" 
d="M803 664q0 -117 -80 -198t-198 -81q-119 0 -197 80t-78 198q0 117 81 197t197 80t195 -80q80 -80 80 -196z" />
    <glyph glyph-name="ellipsis" unicode="&#x2026;" horiz-adv-x="1576" 
d="M365 0h-203v197h203v-197zM891 0h-203v197h203v-197zM1415 0h-201v197h201v-197z" />
    <glyph glyph-name="perthousand" unicode="&#x2030;" horiz-adv-x="2260" 
d="M520 996q0 132 -27 195q-28 62 -115 62q-87 -1 -116 -69t-29 -162q0 -149 23 -220t114 -72q90 -2 120 66t30 200zM1348 339q0 133 -28 195t-115 62t-117 -70t-29 -196t27 -192t114 -66t118 68t30 199zM2030 339q0 133 -28 195t-115 62t-115 -69t-29 -162q0 -152 23 -223
q23 -70 113 -70q91 0 121 68t30 199zM653 996q0 -169 -61 -266t-218 -97t-216 96t-60 268q0 352 277 353q158 0 218 -92t60 -262zM1231 1288l-744 -1288h-163l741 1288h166zM1202 692q158 0 218 -92t59 -261t-61 -266t-217 -97t-216 96t-59 268q0 352 276 352zM1884 692
q158 0 218 -92t61 -261t-61 -266t-219 -97t-216 96t-59 268q0 352 276 352z" />
    <glyph glyph-name="guilsinglleft" unicode="&#x2039;" horiz-adv-x="526" 
d="M449 926l-199 -369l196 -369h-170l-190 365l190 373h173z" />
    <glyph glyph-name="guilsinglright" unicode="&#x203a;" horiz-adv-x="526" 
d="M455 553l-191 -365h-170l197 369l-199 369h172z" />
    <glyph glyph-name="fraction" unicode="&#x2044;" horiz-adv-x="397" 
d="M651 1288l-743 -1288h-164l741 1288h166z" />
    <glyph glyph-name="trademark" unicode="&#x2122;" horiz-adv-x="1871" 
d="M729 1233h-225v-637h-125v637h-225v92h575v-92zM1679 596h-120v606l-248 -606h-117l-248 606v-606h-119v729h199l231 -571l234 571h188v-729z" />
    <glyph glyph-name="partialdiff" unicode="&#x2202;" 
d="M299 375q0 -117 58 -186t165 -69q106 0 168 80t62 289q-70 180 -246 181q-133 0 -173 -96q-34 -82 -34 -199zM961 580q0 -612 -451 -613q-178 0 -298 120q-120 119 -120 313t102 309t302 114q74 0 154 -48t120 -130q0 205 -87 339t-255 134q-90 0 -203 -53l-63 170
q137 37 273 37q135 0 239 -62q185 -110 256 -383q31 -118 31 -247z" />
    <glyph glyph-name="product" unicode="&#x220f;" 
d="M1012 -369h-164v1669h-643v-1669h-164v1807h971v-1807z" />
    <glyph glyph-name="summation" unicode="&#x2211;" 
d="M1014 -369h-953v121l572 787l-545 778v121h903v-142h-696l530 -757l-561 -766h750v-142z" />
    <glyph glyph-name="minus" unicode="&#x2212;" 
d="M971 383h-889v133h889v-133z" />
    <glyph glyph-name="radical" unicode="&#x221a;" 
d="M39 373v143h252l241 -604l347 1618h163l-376 -1790h-240l-264 633h-123z" />
    <glyph glyph-name="infinity" unicode="&#x221e;" horiz-adv-x="1523" 
d="M440 647q-66 0 -110 -52t-43 -131q0 -79 47 -132t108 -53q99 0 230 188q-118 180 -232 180zM1235 463q0 80 -41 132q-40 52 -96 52t-102 -31q-46 -32 -74 -64t-68 -85q39 -55 65 -89q25 -34 71 -67t89 -32q70 0 113 52t43 132zM1415 466q0 -138 -85 -234t-256 -95
q-171 0 -312 205q-158 -205 -321 -205t-247 94q-84 95 -85 231q0 136 88 231q89 95 257 95t310 -196q51 63 87 98t98 67t134 31q172 0 252 -92t80 -230z" />
    <glyph glyph-name="integral" unicode="&#x222b;" 
d="M612 1155v-1135q0 -276 -321 -342l-47 146q110 22 152 66t42 139v1134q0 285 328 342l41 -145q-113 -20 -154 -64t-41 -141z" />
    <glyph glyph-name="approxequal" unicode="&#x2248;" 
d="M342 238q-70 0 -104 -34t-33 -118l-150 78q0 104 70 170t188 65q61 -1 127 -27t146 -84t121 -59q73 0 107 34t34 116l147 -78q1 -102 -71 -169t-191 -66q-77 0 -155 43t-140 86t-96 43zM342 627q-70 0 -104 -34t-33 -118l-150 78q0 104 70 170t188 65q61 0 127 -26
t146 -86q80 -58 121 -58q73 0 107 34t34 116l147 -78q1 -102 -71 -169t-191 -66q-77 0 -155 43t-140 86t-96 43z" />
    <glyph glyph-name="notequal" unicode="&#x2260;" 
d="M971 170h-496l-156 -295l-139 78l115 217h-213v147h293l108 207h-401v148h479l162 305l139 -78l-121 -227h230v-148h-307l-111 -207h418v-147z" />
    <glyph glyph-name="lessequal" unicode="&#x2264;" 
d="M971 2h-889v145h889v-145zM971 195l-889 258v198l889 260v-182l-699 -178l699 -172v-184z" />
    <glyph glyph-name="greaterequal" unicode="&#x2265;" 
d="M971 2h-889v145h889v-145zM971 453l-889 -258v184l696 172l-696 178v182l889 -260v-198z" />
    <glyph glyph-name="lozenge" unicode="&#x25ca;" 
d="M795 641l-271 588l-268 -588l268 -588zM954 641l-346 -717h-170l-340 717l340 713h172z" />
    <glyph glyph-name="fi" unicode="&#xfb01;" horiz-adv-x="1011" 
d="M350 936h172v-141h-172v-795h-182v795h-141v141h141v63q0 179 122 266q102 73 230 97l62 -154q-121 -20 -176 -62t-56 -132v-78zM870 0h-182v936h182v-936zM877 1145h-195v180h195v-180z" />
    <glyph glyph-name="fl" unicode="&#xfb02;" horiz-adv-x="1011" 
d="M350 936h172v-141h-172v-795h-182v795h-141v141h141v63q0 179 122 266q102 73 230 97l62 -154q-121 -20 -176 -62t-56 -132v-78zM874 0h-182v1346h182v-1346z" />
    <glyph glyph-name="HT" horiz-adv-x="526" 
 />
    <glyph glyph-name="CR" horiz-adv-x="491" 
 />
    <glyph glyph-name="apple" 
d="M772 685q0 105 -71 183t-173 78t-175 -80t-73 -182t72 -184t174 -82t174 81t72 186zM524 274q-124 0 -219 70l-123 -123l-116 117l120 123q-68 96 -68 223t68 223l-123 121l117 117l123 -121q102 68 219 68t226 -68l120 121l119 -117l-123 -123q70 -96 70 -220t-70 -224
l123 -123l-119 -117l-120 123q-100 -70 -224 -70z" />
    </font>
</defs>
</svg>
