<?xml version="1.0" standalone="no"?>
<!DOCTYPE svg PUBLIC "-//W3C//DTD SVG 1.1//EN" "http://www.w3.org/Graphics/SVG/1.1/DTD/svg11.dtd" >
<svg xmlns="http://www.w3.org/2000/svg">
<metadata>
Created by FontPrep 20130207 at Wed Apr 23 17:42:17 2014
 By Magalie Chetrit
Copyright (c) 2003 by This Font is designed by Ralph Oliver du Carrois. All rights reserved.
</metadata>
<defs>
<font id="ecb62f582a45431dc8d971a2bf104180" horiz-adv-x='1024' >
  <font-face 
    font-family="Colaborate-Bold"
    font-weight="400"
    font-stretch="normal"
    units-per-em="2048"
    panose-1="2 0 8 3 2 0 0 2 0 4"
    ascent="1638"
    descent="-410"
    x-height="936"
    cap-height="1325"
    bbox="-256 -539 2372 1710"
    underline-thickness="102"
    underline-position="-102"
    unicode-range="U+0020-FB02"
  />
<missing-glyph horiz-adv-x="2048" 
 />
    <glyph glyph-name=".notdef" horiz-adv-x="2048" 
 />
    <glyph glyph-name=".null" horiz-adv-x="0" 
 />
    <glyph glyph-name="nonmarkingreturn" horiz-adv-x="681" 
 />
    <glyph glyph-name="space" unicode=" " horiz-adv-x="579" 
 />
    <glyph glyph-name="exclam" unicode="!" horiz-adv-x="579" 
d="M432 0h-287v252h287v-252zM428 385h-276v940h276v-940z" />
    <glyph glyph-name="quotedbl" unicode="&#x22;" horiz-adv-x="579" 
d="M389 1325l-16 -444h-207l-16 444h239zM709 1325l-17 -444h-203l-16 444h236z" />
    <glyph glyph-name="numbersign" unicode="#" 
d="M668 791h-136l-47 -273h136zM1124 791h-231l-45 -273h196v-188h-231l-57 -330h-226l58 330h-135l-60 -330h-225l57 330h-188v188h223l45 273h-188v188h225l59 346h226l-60 -346h138l59 346h225l-59 -346h194v-188z" />
    <glyph glyph-name="dollar" unicode="$" 
d="M733 330q0 74 -69 133v-240q69 33 69 107zM377 981q0 -64 88 -113v232q-88 -29 -88 -119zM1038 344q0 -180 -95 -265t-273 -108v-172h-211v160q-143 2 -377 66l94 260q16 -5 66 -25t101 -39q52 -19 116 -22v362q-72 29 -113 47t-100 56q-176 112 -175 326q1 149 110 241
q110 92 278 117v180h211v-176q190 -16 311 -58l-94 -260q-143 61 -217 76v-326q80 -30 135 -60q152 -82 203 -205q30 -75 30 -175z" />
    <glyph glyph-name="percent" unicode="%" horiz-adv-x="1794" 
d="M388 774q70 0 94 54q26 54 26 174t-25 165t-95 45t-92 -49t-22 -171t22 -170t92 -48zM1402 113q70 0 94 54q26 54 26 174t-25 165t-95 45t-92 -49t-22 -171t22 -170t92 -48zM707 999q0 -182 -76 -274t-241 -92q-164 0 -238 92t-74 276q0 352 313 353q166 0 241 -86
t75 -269zM1378 1288l-743 -1288h-234l742 1288h235zM1405 692q167 0 239 -86t72 -268t-74 -274t-238 -93q-164 0 -239 92q-74 92 -73 277q0 352 313 352z" />
    <glyph glyph-name="ampersand" unicode="&#x26;" 
d="M655 1018q0 131 -125 131q-61 0 -97 -47t-16 -123q12 -42 79 -109q50 23 78 39t55 46q26 30 26 63zM1069 0h-266l-37 84q-33 -43 -111 -81q-79 -38 -145 -38q-148 0 -273 82q-143 92 -143 345t211 364q-3 2 -25 19t-31 25t-31 29q-22 20 -44 52q-39 59 -39 133
q0 152 99 249t295 97t300 -89q105 -89 105 -258t-381 -333q-100 -43 -136 -114t-36 -183q0 -207 178 -207q50 0 74 18t39 27q15 10 44 44t34 38v117h-164v196h442v-329q0 -51 20 -163t21 -124z" />
    <glyph glyph-name="quotesingle" unicode="'" horiz-adv-x="579" 
d="M410 1325l-17 -444h-207l-16 444h240z" />
    <glyph glyph-name="parenleft" unicode="(" horiz-adv-x="686" 
d="M111 536q0 250 46 416t160 373h256q-109 -199 -147 -371t-39 -418q0 -246 39 -414q39 -169 158 -384h-256q-129 223 -173 386q-44 162 -44 412z" />
    <glyph glyph-name="parenright" unicode=")" horiz-adv-x="686" 
d="M584 536q0 -250 -44 -412q-44 -163 -173 -386h-254q119 215 157 384q39 168 39 414t-39 418t-147 371h254q115 -207 161 -373t46 -416z" />
    <glyph glyph-name="asterisk" unicode="*" horiz-adv-x="921" 
d="M903 946l-313 -74l-2 -22l205 -270l-131 -93l-179 279h-24l-187 -283l-131 103l209 264l-8 22l-326 76l54 162l313 -115l20 17l-14 321h158l-12 -327l18 -13l309 113z" />
    <glyph glyph-name="plus" unicode="+" 
d="M1036 356h-342v-356h-229v356h-342v207h342v326h229v-326h342v-207z" />
    <glyph glyph-name="comma" unicode="," horiz-adv-x="579" 
d="M434 154l-166 -365h-211l88 365h289z" />
    <glyph glyph-name="hyphen" unicode="-" horiz-adv-x="741" 
d="M688 328h-635v229h635v-229z" />
    <glyph glyph-name="period" unicode="." horiz-adv-x="579" 
d="M434 0h-289v254h289v-254z" />
    <glyph glyph-name="slash" unicode="/" horiz-adv-x="661" 
d="M664 1346l-431 -1369h-235l436 1369h230z" />
    <glyph glyph-name="zero" unicode="0" 
d="M770 634q0 228 -36 318t-156 90q-93 0 -132 -59t-48 -145q-9 -85 -9 -196q0 -306 45 -377q45 -70 150 -70q106 -1 146 105t40 334zM585 1274q267 0 381 -156t115 -490q1 -335 -115 -500t-390 -165t-386 164t-112 499q0 336 120 492t387 156z" />
    <glyph glyph-name="one" unicode="1" 
d="M870 -2h-311v958l-231 -178l-92 219l331 246h303v-1245z" />
    <glyph glyph-name="two" unicode="2" 
d="M1077 0h-884l-84 254q320 201 473 339q61 56 111 127t50 124q0 201 -174 200q-129 0 -325 -106l-88 252q178 58 244 72t165 14q100 0 179 -20t152 -63q73 -44 115 -131t42 -206t-92 -250q-154 -219 -433 -377h549v-229z" />
    <glyph glyph-name="three" unicode="3" 
d="M1018 368q0 -237 -173 -327q-146 -76 -341 -78q-258 0 -418 55l90 252q24 -16 134 -46t204 -30t143 53q49 52 49 108q1 99 -55 136t-151 43q-94 5 -181 5v229h37q230 0 275 36t45 104q0 138 -158 136q-123 0 -319 -96l-90 252q63 32 198 54t223 22q457 0 457 -358
q0 -115 -82 -182t-203 -81q128 -20 222 -92t94 -195z" />
    <glyph glyph-name="four" unicode="4" 
d="M610 557v416l-342 -416h342zM1114 324h-196v-324h-308v324h-495l-101 233l557 686h347v-686h196v-233z" />
    <glyph glyph-name="five" unicode="5" 
d="M1055 408q0 -207 -157 -326t-378 -119q-274 0 -430 51l88 252q180 -72 336 -72t195 67q38 66 38 158q1 93 -41 127t-123 34t-134 -23t-115 -63l-193 71v678h863v-231h-555v-219q49 23 163 22q199 0 321 -100t122 -307z" />
    <glyph glyph-name="six" unicode="6" 
d="M598 604q-145 0 -195 -127q1 -170 51 -226t130 -56q170 0 170 174l2 59q0 176 -158 176zM1065 369q0 -182 -141 -294t-330 -112q-502 0 -502 617q0 346 190 545q142 151 384 151q162 0 315 -41l-88 -252q-115 61 -208 61q-238 0 -288 -225q-12 -53 -12 -108q37 69 112 97
t126 28q442 0 442 -467z" />
    <glyph glyph-name="seven" unicode="7" 
d="M119 1014v227h809l94 -190l-428 -1051h-328l477 1014h-624z" />
    <glyph glyph-name="eight" unicode="8" 
d="M776 332q0 86 -49 133t-143 80q-104 -39 -152 -81t-49 -132q1 -139 197 -139t196 139zM748 909q0 104 -70 126q-36 11 -114 11t-109 -33t-31 -83t12 -76q23 -51 144 -94q53 20 83 34q29 14 57 46t28 69zM1081 324q0 -195 -131 -278q-132 -83 -372 -83t-369 82t-129 279
q0 274 297 331q-127 45 -178 95q-76 72 -76 178q0 164 116 256q117 92 359 92t347 -84t106 -262q0 -68 -30 -121t-75 -84q-83 -57 -162 -72q150 -33 224 -110q73 -78 73 -219z" />
    <glyph glyph-name="nine" unicode="9" 
d="M563 635q82 0 125 33t68 94q0 172 -49 227t-129 55q-172 0 -172 -176l-3 -55q0 -178 160 -178zM1067 658q0 -341 -188 -544q-139 -151 -405 -151q-142 0 -296 41l88 252q115 -61 209 -61q237 0 287 225q12 53 12 108q-38 -70 -112 -98t-125 -27q-440 0 -441 465
q0 182 146 295t325 113q236 0 360 -129q140 -148 140 -489z" />
    <glyph glyph-name="colon" unicode=":" horiz-adv-x="579" 
d="M434 0h-289v254h289v-254zM434 672h-289v254h289v-254z" />
    <glyph glyph-name="semicolon" unicode=";" horiz-adv-x="579" 
d="M434 154l-166 -365h-211l90 365h287zM436 672h-289v254h289v-254z" />
    <glyph glyph-name="less" unicode="&#x3c;" 
d="M1057 92l-955 281v286l955 285v-264l-676 -164l676 -160v-264z" />
    <glyph glyph-name="equal" unicode="=" 
d="M1057 113h-955v204h955v-204zM1057 467h-955v205h955v-205z" />
    <glyph glyph-name="greater" unicode="&#x3e;" 
d="M1057 377l-955 -285v264l676 164l-676 160v264l955 -278v-289z" />
    <glyph glyph-name="question" unicode="?" horiz-adv-x="993" 
d="M594 0h-287v252h287v-252zM930 1003q0 -82 -35 -138t-85 -96t-101 -76q-121 -85 -121 -169v-151h-275v162q0 143 112 236q46 38 93 70q113 77 113 143t-29 94t-100 28q-70 0 -190 -23t-171 -49l-37 250q66 23 189 42q258 40 421 -9q68 -20 110 -56t74 -106t32 -152z" />
    <glyph glyph-name="at" unicode="@" horiz-adv-x="1904" 
d="M1743 758q1 -130 -59 -238t-164 -161q-195 -101 -469 -101q-502 0 -502 404q0 174 105 280t341 107q154 0 246 -29v-272l27 -5l73 -198l-352 -25v307q-16 10 -18 11h-19q-131 0 -131 -179q0 -201 205 -200h29q86 0 131 3t107 19t93 48q80 82 78 249q0 360 -444 361
q-455 0 -554 -308q-26 -78 -26 -176q0 -481 582 -481h10q158 0 438 62l97 -230q-267 -47 -497 -47t-385 41t-273 123t-185 217q-65 135 -65 316q1 518 527 658q151 40 313 40t287 -36q124 -36 196 -81t131 -105t93 -152t34 -222z" />
    <glyph glyph-name="A" unicode="A" horiz-adv-x="1443" 
d="M858 569l-131 420l-141 -420h272zM1389 0h-345l-106 334h-438l-111 -334h-334l539 1325h295z" />
    <glyph glyph-name="B" unicode="B" horiz-adv-x="1325" 
d="M766 240q53 0 94 38t41 120q0 81 -43 123t-115 42h-243v-323h266zM739 801q47 -1 75 39t28 90t-7 76q-7 28 -39 54t-85 25h-211v-284h239zM1219 393q0 -211 -123 -302t-318 -91h-590v1325h523q446 0 446 -373q0 -100 -58 -167t-153 -91q127 -12 200 -88t73 -213z" />
    <glyph glyph-name="C" unicode="C" horiz-adv-x="1210" 
d="M756 -41q-639 0 -639 703q0 294 137 483q152 209 516 209q186 0 356 -56l-94 -260q-176 76 -270 76q-170 0 -247 -108t-77 -348t72 -350t240 -109q115 0 297 86l94 -260q-186 -66 -385 -66z" />
    <glyph glyph-name="D" unicode="D" horiz-adv-x="1423" 
d="M927 347q58 98 58 336t-82 325q-29 31 -51 45q-49 32 -178 32h-174v-845h192q53 0 90 6t78 32t67 69zM674 1325q322 1 478 -151t155 -510q0 -358 -152 -511t-481 -153h-486v1325h486z" />
    <glyph glyph-name="E" unicode="E" horiz-adv-x="1234" 
d="M1020 0h-832v1325h813v-240h-501v-280h458v-240h-458v-325h520v-240z" />
    <glyph glyph-name="F" unicode="F" horiz-adv-x="1103" 
d="M1001 1083h-501v-286h477v-238h-477v-559h-312v1325h813v-242z" />
    <glyph glyph-name="G" unicode="G" horiz-adv-x="1337" 
d="M786 1114q-88 0 -142 -17t-104 -63q-102 -93 -102 -354q0 -262 72 -372t250 -109q76 0 110 6t74 31v260h-293v239h570v-655q-107 -66 -209 -94t-258 -27q-637 0 -637 705q0 319 162 504t493 186q135 0 348 -56l-94 -260q-152 76 -240 76z" />
    <glyph glyph-name="H" unicode="H" horiz-adv-x="1462" 
d="M1274 0h-311v563h-463v-563h-312v1325h312v-520h463v520h311v-1325z" />
    <glyph glyph-name="I" unicode="I" horiz-adv-x="638" 
d="M475 0h-311v1325h311v-1325z" />
    <glyph glyph-name="J" unicode="J" horiz-adv-x="952" 
d="M764 418q0 -179 -77 -321q-117 -207 -448 -311q-54 -17 -133 -40l-81 254q68 10 101 18q33 9 76 20t89 36q47 24 64 44q58 67 70 103q27 86 28 176v928h311v-907z" />
    <glyph glyph-name="K" unicode="K" horiz-adv-x="1421" 
d="M500 0h-312v1325h312v-537l442 537h352l-503 -620l604 -705h-402l-493 586v-586z" />
    <glyph glyph-name="L" unicode="L" horiz-adv-x="1034" 
d="M1024 0h-836v1325h312v-1079h524v-246z" />
    <glyph glyph-name="M" unicode="M" horiz-adv-x="1980" 
d="M1796 0h-309v993l-334 -993h-334l-332 993v-993h-299v1325h523l286 -911l297 911h502v-1325z" />
    <glyph glyph-name="N" unicode="N" horiz-adv-x="1542" 
d="M1354 0h-471l-396 956v-956h-299v1325h467l392 -956v956h307v-1325z" />
    <glyph glyph-name="O" unicode="O" horiz-adv-x="1529" 
d="M1092 662q0 248 -81 350t-245 102t-246 -103t-82 -361t80 -354q80 -97 249 -97t247 108t78 355zM1413 657q0 -319 -152 -509q-153 -189 -493 -189q-651 0 -651 698q0 304 150 500q150 195 503 197q643 -1 643 -697z" />
    <glyph glyph-name="P" unicode="P" horiz-adv-x="1273" 
d="M700 737q66 1 113 43t47 120q0 138 -61 165q-44 20 -109 20h-190v-348h200zM1176 918q0 -420 -459 -420h-217v-498h-312v1325h506q482 1 482 -407z" />
    <glyph glyph-name="Q" unicode="Q" horiz-adv-x="1529" 
d="M1092 662q0 248 -81 350t-245 102t-246 -103t-82 -361t80 -354q80 -97 249 -97t247 108t78 355zM1249 -137l-104 -197l-477 72l104 170zM1413 657q0 -319 -152 -509q-153 -189 -493 -189q-651 0 -651 698q0 303 149 499t504 198q643 -1 643 -697z" />
    <glyph glyph-name="R" unicode="R" horiz-adv-x="1372" 
d="M870 928q0 158 -135 157h-235v-315h237q61 0 98 44q35 44 35 114zM500 530v-530h-312v1325h537q461 0 461 -397q0 -140 -72 -246t-231 -141l403 -541h-383l-385 530h-18z" />
    <glyph glyph-name="S" unicode="S" horiz-adv-x="1261" 
d="M1135 345q0 -239 -183 -318q-153 -68 -369 -68t-456 66l94 260q229 -86 348 -86q119 -1 185 27t65 114q0 59 -51 103t-128 71t-167 66t-167 82q-77 44 -128 126t-51 201t84 206q154 159 446 159q197 0 371 -60l-94 -260q-12 4 -81 36t-115 38t-98 6t-100 -14
q-46 -14 -71 -46t-26 -77t51 -82t128 -59t166 -61q90 -38 167 -85t129 -136t51 -209z" />
    <glyph glyph-name="T" unicode="T" horiz-adv-x="1095" 
d="M1055 1083h-350v-1083h-314v1083h-350v242h1014v-242z" />
    <glyph glyph-name="U" unicode="U" horiz-adv-x="1525" 
d="M1337 485q0 -260 -146 -393t-415 -133q-588 0 -588 530v836h312v-815q0 -198 91 -260q72 -51 183 -51q112 -1 182 73t70 238v815h311v-840z" />
    <glyph glyph-name="V" unicode="V" horiz-adv-x="1384" 
d="M1329 1325l-485 -1325h-289l-500 1325h344l308 -950l288 950h334z" />
    <glyph glyph-name="W" unicode="W" horiz-adv-x="2070" 
d="M2003 1325l-334 -1325h-391l-240 862l-295 -862h-391l-284 1325h329l191 -954l280 899h394l215 -897l219 952h307z" />
    <glyph glyph-name="X" unicode="X" horiz-adv-x="1349" 
d="M1278 0h-367l-243 434l-275 -434h-334l443 684l-389 641h358l213 -369l229 369h334l-403 -633z" />
    <glyph glyph-name="Y" unicode="Y" horiz-adv-x="1327" 
d="M813 0h-311v588l-475 737h354l289 -463l291 463h339l-487 -729v-596z" />
    <glyph glyph-name="Z" unicode="Z" horiz-adv-x="1171" 
d="M1069 242v-242h-905l-78 250l664 833h-588v242h846l77 -250l-659 -833h643z" />
    <glyph glyph-name="bracketleft" unicode="[" horiz-adv-x="657" 
d="M561 -260h-391v1644h391v-194h-162v-1249h162v-201z" />
    <glyph glyph-name="backslash" unicode="\" horiz-adv-x="661" 
d="M664 -23h-236l-430 1369h229z" />
    <glyph glyph-name="bracketright" unicode="]" horiz-adv-x="657" 
d="M516 -262h-391v203h162v1247h-162v194h391v-1644z" />
    <glyph glyph-name="asciicircum" unicode="^" 
d="M1096 551h-252l-266 592l-271 -592h-246l371 774h285z" />
    <glyph glyph-name="underscore" unicode="_" horiz-adv-x="1024" 
d="M1026 -252h-1028v213h1028v-213z" />
    <glyph glyph-name="grave" unicode="`" horiz-adv-x="544" 
d="M506 1085h-184l-283 240h270z" />
    <glyph glyph-name="a" unicode="a" horiz-adv-x="1112" 
d="M678 397h-45q-258 0 -258 -139q0 -72 143 -72q68 1 160 103v108zM731 0q-2 0 -20 47l-17 39q-2 -2 -18 -14t-31 -25t-32 -21q-17 -10 -33 -20t-28 -14l-36 -12q-23 -8 -55 -9q-377 0 -377 275q0 352 520 352h72v31q0 33 -3 53t-29 44t-75 24q-182 0 -354 -82l-96 229
q201 68 469 68q168 0 269 -76t101 -223v-379q0 -43 18 -149t23 -138h-268z" />
    <glyph glyph-name="b" unicode="b" horiz-adv-x="1128" 
d="M758 469q0 164 -45 222t-123 59q-35 0 -70 -31t-53 -61t-59 -99v-227q59 -145 155 -146q195 0 195 283zM1044 473q0 -213 -114 -357t-318 -145q-78 0 -132 37t-74 78l-41 -86h-261q27 201 27 287v1059h281v-525q109 143 239 144q199 1 296 -139t97 -353z" />
    <glyph glyph-name="c" unicode="c" horiz-adv-x="976" 
d="M571 -29q-231 0 -359 134q-128 133 -128 361t127 363t367 136q59 0 163 -23t160 -45l-96 -229q-164 82 -230 82q-106 0 -155 -60t-49 -229q0 -274 202 -275q82 0 242 82l96 -229q-51 -25 -166 -47t-174 -21z" />
    <glyph glyph-name="d" unicode="d" horiz-adv-x="1128" 
d="M537 750q-78 0 -122 -58t-44 -226q0 -169 47 -224q48 -55 146 -55t157 145v227q-80 131 -115 161t-69 30zM496 -29q-98 0 -183 40q-86 40 -135 112q-96 141 -95 351t99 350t291 141q135 0 244 -144v525h280v-1059q0 -86 27 -287h-260l-41 86q-21 -41 -75 -78t-152 -37z
" />
    <glyph glyph-name="e" unicode="e" horiz-adv-x="1107" 
d="M551 750q-46 0 -87 -22q-81 -44 -85 -173h360q-18 195 -188 195zM1020 348h-643q33 -170 203 -170q129 0 288 80l93 -213q-167 -74 -395 -74q-228 1 -355 141t-127 347q0 149 59 271q112 235 406 235q263 1 367 -143t104 -474z" />
    <glyph glyph-name="f" unicode="f" horiz-adv-x="684" 
d="M440 948v-12h172v-215h-172v-721h-280v721h-142v215h142v22q0 182 112 272q113 89 338 132l99 -227q-139 -15 -204 -57t-65 -130z" />
    <glyph glyph-name="g" unicode="g" horiz-adv-x="1165" 
d="M807 -141q0 74 -418 75q-27 -32 -27 -70t75 -61t179 -23t148 16q43 16 43 63zM745 610q0 145 -167 146q-64 0 -101 -16q-71 -32 -71 -138q0 -150 174 -149q86 0 126 49q39 49 39 108zM1026 615q0 -145 -87 -249q-46 -56 -139 -90t-224 -34t-207 30q-37 -4 -37 -48t52 -58
t226 -27q287 -19 384 -81t98 -199q0 -76 -44 -132t-119 -86q-142 -57 -339 -59q-280 0 -396 71t-116 200q0 51 26 90q28 39 48 51t55 29q-111 51 -111 182q0 92 117 170q-88 113 -88 218t37 172q37 66 83 105t131 67q84 28 162 28t193 -17q270 23 383 27l-67 -182h-107
q86 -102 86 -178z" />
    <glyph glyph-name="h" unicode="h" horiz-adv-x="1116" 
d="M993 0h-280v623q0 99 -50 119q-77 33 -139 -19q-37 -31 -57 -63t-55 -93v-567h-281v1346h281v-525q2 2 23 29t79 71q57 44 133 46q201 1 274 -97t72 -286v-584z" />
    <glyph glyph-name="i" unicode="i" horiz-adv-x="544" 
d="M412 0h-279v936h279v-936zM418 1104h-291v221h291v-221z" />
    <glyph glyph-name="j" unicode="j" horiz-adv-x="540" 
d="M406 12q0 -192 -116 -300q-97 -90 -257 -150l-99 227q106 23 149 68q42 45 42 137v942h281v-924zM414 1104h-297v221h297v-221z" />
    <glyph glyph-name="k" unicode="k" horiz-adv-x="1044" 
d="M412 0h-281v1346h281v-771l262 361h301l-299 -406l348 -530h-319l-293 459v-459z" />
    <glyph glyph-name="l" unicode="l" horiz-adv-x="542" 
d="M412 0h-281v1346h281v-1346z" />
    <glyph glyph-name="m" unicode="m" horiz-adv-x="1699" 
d="M1569 0h-281v594q0 96 -24 128q-25 32 -72 32q-135 0 -207 -197v-557h-280v594q0 104 -23 132t-82 28t-102 -53q-27 -30 -57 -78q-29 -47 -29 -54v-569h-281v721q0 45 -12 119t-15 96h261l38 -117q31 45 103 96t141 52q121 0 176 -25t127 -108q82 133 287 133
q168 0 250 -90t82 -279v-598z" />
    <glyph glyph-name="n" unicode="n" horiz-adv-x="1124" 
d="M993 0h-280v608q0 108 -49 133q-25 13 -73 13t-91 -49t-88 -138v-567h-281v737q0 39 -27 199h261l41 -115q4 4 27 29q82 86 149 106q33 10 67 11q199 1 272 -97t72 -280v-590z" />
    <glyph glyph-name="o" unicode="o" horiz-adv-x="1140" 
d="M770 473q0 164 -47 222q-47 59 -149 59t-153 -60q-50 -60 -50 -221q-1 -291 199 -291t200 291zM1057 474q0 -220 -120 -362t-367 -142q-246 0 -366 140q-120 142 -120 359t121 357t369 140t365 -136q118 -136 118 -356z" />
    <glyph glyph-name="p" unicode="p" horiz-adv-x="1128" 
d="M592 182q76 0 121 60t45 229q0 170 -48 226t-149 57q-57 0 -119 -116q-8 -15 -36 -69v-233q37 -74 88 -114t98 -40zM635 967q209 1 309 -141t100 -358t-100 -357t-293 -142q-59 0 -130 31t-109 84v-453h-281v1014q0 78 -27 291h261l45 -115q31 41 51 64t70 53t104 29z
" />
    <glyph glyph-name="q" unicode="q" horiz-adv-x="1128" 
d="M371 472q0 -171 45 -230q44 -60 106 -60q121 -1 199 154v233q-4 9 -14 29q-50 102 -81 129t-57 27q-104 0 -151 -56t-47 -226zM997 645v-1014h-280v453q-39 -53 -111 -84t-131 -31q-143 0 -233 72t-124 177t-34 245q0 217 104 360t306 144q53 0 103 -30t71 -52
q20 -23 51 -64l45 115h260q-27 -213 -27 -291z" />
    <glyph glyph-name="r" unicode="r" horiz-adv-x="823" 
d="M131 727q0 101 -27 209h261l41 -129q94 160 200 160t187 -25l-95 -227q-45 39 -116 39q-104 0 -170 -199v-555h-281v727z" />
    <glyph glyph-name="s" unicode="s" horiz-adv-x="960" 
d="M881 258q0 -289 -432 -289q-164 0 -375 68l96 229q27 -8 109 -45t160 -38q77 -1 110 11t39 25q6 12 6 31v6q0 27 -51 44q-51 16 -124 36t-146 53t-123 108t-52 185q0 285 418 285q145 0 336 -58l-94 -227q-106 49 -153 60q-46 11 -87 12q-133 0 -133 -66q0 -36 51 -60
t124 -46t146 -53q73 -33 124 -101t51 -170z" />
    <glyph glyph-name="t" unicode="t" horiz-adv-x="651" 
d="M164 236v485h-141v217h141v256h278v-256h181v-217h-181v-514q0 -88 42 -130t153 -75l-105 -227q-170 66 -269 170t-99 291z" />
    <glyph glyph-name="u" unicode="u" horiz-adv-x="1110" 
d="M131 346v590h281v-608q0 -43 4 -69q4 -25 30 -51t65 -26q41 0 65 14t48 46q24 33 74 127v567h281v-737q0 -39 27 -199h-261l-40 115q-2 -2 -35 -37q-34 -35 -54 -52q-20 -16 -62 -36t-85 -21q-188 1 -263 99t-75 278z" />
    <glyph glyph-name="v" unicode="v" horiz-adv-x="1148" 
d="M1079 936l-364 -936h-283l-362 936h299l213 -614l202 614h295z" />
    <glyph glyph-name="w" unicode="w" horiz-adv-x="1720" 
d="M1667 936l-305 -936h-297l-186 530l-211 -530h-297l-318 936h297l195 -596l200 518h279l193 -520l159 598h291z" />
    <glyph glyph-name="x" unicode="x" horiz-adv-x="1056" 
d="M1012 0h-310l-176 276l-188 -276h-293l338 473l-315 463h309l160 -260l168 260h290l-321 -449z" />
    <glyph glyph-name="y" unicode="y" horiz-adv-x="1130" 
d="M1061 936l-412 -1086q-111 -295 -391 -389l-96 228q145 39 180 133l82 217l-354 897h299l192 -582l205 582h295z" />
    <glyph glyph-name="z" unicode="z" horiz-adv-x="944" 
d="M864 215v-215h-725l-96 229l539 492h-465v215h690l94 -229l-530 -492h493z" />
    <glyph glyph-name="braceleft" unicode="{" horiz-adv-x="831" 
d="M662 1114q-126 0 -144 -167q-8 -73 -17 -149t-48 -150q-39 -73 -117 -107q78 -29 118 -99t48 -148t15 -153q16 -172 145 -172v-211q-123 4 -204 42t-117 96q-58 94 -78 271q-7 71 -18 130t-47 98t-100 43v211q118 4 143 134q11 58 17 129t24 142t56 130q37 59 119 98
t205 43v-211z" />
    <glyph glyph-name="bar" unicode="|" horiz-adv-x="579" 
d="M408 -340h-236v1778h236v-1778z" />
    <glyph glyph-name="braceright" unicode="}" horiz-adv-x="831" 
d="M172 -31q126 0 142 172q7 74 16 153q8 78 48 148t118 99q-78 35 -117 107t-47 150t-16 150q-20 166 -144 166v211q123 -4 205 -43t119 -98t54 -130t23 -142q5 -71 17 -129q26 -130 143 -134v-211q-75 -6 -111 -57t-41 -125q-12 -178 -66 -319q-28 -74 -115 -124t-228 -55
v211z" />
    <glyph glyph-name="asciitilde" unicode="~" 
d="M795 289q-66 1 -135 31q-70 30 -112 66t-80 67t-52 30q-74 1 -106 -31t-31 -130l-216 118q0 113 78 195t221 82q76 0 150 -30q74 -29 117 -65t76 -66t38 -30q76 0 107 29t31 127l217 -117q0 -113 -77 -195t-226 -81z" />
    <glyph glyph-name="nbspace" unicode="&#xa0;" horiz-adv-x="579" 
 />
    <glyph glyph-name="exclamdown" unicode="&#xa1;" horiz-adv-x="579" 
d="M428 0h-276v940h276v-940zM432 1073h-287v252h287v-252z" />
    <glyph glyph-name="cent" unicode="&#xa2;" horiz-adv-x="976" 
d="M371 480q0 -188 86 -269v518q-86 -61 -86 -249zM678 -205h-221v187q-180 33 -277 160q-96 128 -96 324t95 326t278 162v195h221v-195q147 -27 223 -57l-96 -229q-104 53 -127 61v-524q57 23 137 63l96 -229q-66 -33 -233 -57v-187z" />
    <glyph glyph-name="sterling" unicode="&#xa3;" 
d="M1116 0h-999v246h127v334h-158v211h158l2 47q0 240 167 381t490 161l80 -254q-92 0 -146 -4q-150 -11 -210 -75q-78 -83 -76 -256h291v-211h-287v-334h561v-246z" />
    <glyph glyph-name="yen" unicode="&#xa5;" 
d="M967 690v-209h-238v-84h238v-207h-238v-190h-311v190h-240v207h240v84h-240v209h180l-364 635h346l246 -475l252 475h327l-379 -635h181z" />
    <glyph glyph-name="brokenbar" unicode="&#xa6;" horiz-adv-x="579" 
d="M406 -160h-232v479h232v-479zM406 735h-232v479h232v-479z" />
    <glyph glyph-name="section" unicode="&#xa7;" horiz-adv-x="917" 
d="M592 639q0 74 -217 137q-49 -25 -49 -92q0 -48 129 -88q55 -18 118 -39q18 18 19 53v29zM365 1075q0 -37 52 -61t127 -44q74 -22 148 -55t126 -103t52 -186t-82 -192q39 -74 39 -178q0 -289 -426 -289q-135 0 -342 68l97 227q18 -8 55 -26q115 -56 185 -56q124 0 141 34
q6 11 6 28v12q0 50 -127 78q-127 29 -240 94q-55 34 -92 100t-37 158q0 145 103 209q-70 74 -70 176q0 285 422 285q127 0 317 -58l-96 -225q-16 7 -50 23q-98 48 -169 47q-139 0 -139 -66z" />
    <glyph glyph-name="dieresis" unicode="&#xa8;" horiz-adv-x="544" 
d="M229 1114h-245v211h245v-211zM563 1114h-246v211h246v-211z" />
    <glyph glyph-name="copyright" unicode="&#xa9;" horiz-adv-x="1474" 
d="M373 656q0 418 377 419q127 0 215 -31l-58 -153q-102 45 -157 45q-98 0 -144 -66t-45 -212q0 -146 43 -214t141 -67q57 1 112 25t61 26l55 -154q-102 -37 -225 -36q-375 0 -375 418zM1262 665q0 221 -152 377t-374 156t-372 -156t-151 -376q0 -220 153 -379
q154 -158 372 -158t371 158t153 378zM51 664q0 288 199 486q200 198 490 198t486 -196t197 -487q-1 -290 -199 -488q-198 -197 -487 -197t-487 198t-199 486z" />
    <glyph glyph-name="ordfeminine" unicode="&#xaa;" 
d="M659 1016h-28q-84 0 -118 -16t-34 -56q0 -33 60 -33h22q51 0 98 47v58zM303 936q0 197 311 197h41v22q0 15 -2 25t-17 19t-44 9q-104 0 -211 -47l-57 133q118 39 250 39q264 0 264 -164v-211q0 -32 11 -85q11 -52 13 -72h-174l-20 49q-86 -63 -140 -64q-225 0 -225 150z
" />
    <glyph glyph-name="guillemotleft" unicode="&#xab;" horiz-adv-x="886" 
d="M481 926l-198 -369l196 -369h-252l-190 365l190 373h254zM850 926l-199 -369l197 -369h-250l-190 365l190 373h252z" />
    <glyph glyph-name="logicalnot" unicode="&#xac;" 
d="M1077 160h-229v352h-776v207h1005v-559z" />
    <glyph glyph-name="registered" unicode="&#xae;" horiz-adv-x="1474" 
d="M836 821q0 43 -20 71t-60 28h-138v-195h140q34 1 56 27t22 69zM618 586v-322h-184v799h316q272 0 272 -242q0 -190 -176 -231l233 -326h-223l-225 322h-13zM1262 665q0 221 -152 377t-374 156t-372 -156t-151 -376q0 -220 153 -379q154 -158 372 -158t371 158t153 378z
M51 664q0 288 199 486q200 198 490 198t486 -196t197 -487q-1 -290 -199 -488q-198 -197 -487 -197t-487 198t-199 486z" />
    <glyph glyph-name="macron" unicode="&#xaf;" horiz-adv-x="544" 
d="M551 1092h-557v194h557v-194z" />
    <glyph glyph-name="degree" unicode="&#xb0;" horiz-adv-x="921" 
d="M662 901q0 87 -56 145t-145 58q-87 0 -145 -58t-58 -144t60 -147t140 -61t142 60t62 147zM831 897q-1 -156 -109 -258t-262 -102t-264 102q-108 102 -108 258t110 261q110 106 264 106t261 -106q108 -106 108 -261z" />
    <glyph glyph-name="plusminus" unicode="&#xb1;" 
d="M1057 -2h-955v207h955v-207zM1036 479h-342v-233h-229v233h-342v207h342v203h229v-203h342v-207z" />
    <glyph glyph-name="twosuperior" unicode="&#xb2;" horiz-adv-x="780" 
d="M686 651h-545l-49 152q12 6 58 33t117 65q70 38 130 92q60 53 74 77t14 56t-19 56q-20 22 -40 26t-53 4q-76 0 -197 -57l-53 150q106 33 147 41t129 8t188 -48q99 -48 99 -184q0 -95 -119 -184t-229 -145h348v-142z" />
    <glyph glyph-name="threesuperior" unicode="&#xb3;" horiz-adv-x="780" 
d="M678 854q0 -133 -114 -179q-99 -42 -233 -42q-133 0 -231 31l52 149q16 -9 82 -25t123 -16q56 0 90 26t34 54q0 58 -57 76t-184 18v133q125 -1 174 13t49 63q1 57 -91 57t-206 -51l-51 152q37 16 117 28t135 13q139 0 216 -50t76 -147q0 -63 -49 -99t-123 -44
q75 -10 133 -51t58 -109z" />
    <glyph glyph-name="acute" unicode="&#xb4;" horiz-adv-x="544" 
d="M506 1325l-281 -240h-186l197 240h270z" />
    <glyph glyph-name="mu" unicode="&#xb5;" 
d="M436 -31v-338h-280v1305h280v-608q0 -43 4 -69q4 -25 30 -51t66 -26t64 14t50 49q25 36 73 124v567h281v-737q-1 -39 26 -199h-260l-41 115q-2 -2 -35 -37t-53 -52q-20 -16 -62 -36t-85 -21h-58z" />
    <glyph glyph-name="mu" unicode="&#x3bc;" 
d="M436 -31v-338h-280v1305h280v-608q0 -43 4 -69q4 -25 30 -51t66 -26t64 14t50 49q25 36 73 124v567h281v-737q-1 -39 26 -199h-260l-41 115q-2 -2 -35 -37t-53 -52q-20 -16 -62 -36t-85 -21h-58z" />
    <glyph glyph-name="paragraph" unicode="&#xb6;" horiz-adv-x="1105" 
d="M1090 -385h-230v1499h-205q-98 0 -160 -66q-63 -66 -63 -170t64 -179t137 -95v-989h-232v860q-123 25 -207 97q-152 129 -153 327q0 198 106 320q41 45 117 75t174 31h652v-1710z" />
    <glyph glyph-name="periodcentered" unicode="&#xb7;" horiz-adv-x="579" 
d="M416 418h-252v252h252v-252z" />
    <glyph glyph-name="cedilla" unicode="&#xb8;" horiz-adv-x="544" 
d="M526 -203q0 -129 -95 -199t-206 -71q-111 0 -229 16l57 187q131 -16 160 -17q98 0 98 80q0 45 -29 61q-30 15 -135 15l43 162h216l-21 -78q69 -1 105 -51t36 -105z" />
    <glyph glyph-name="onesuperior" unicode="&#xb9;" horiz-adv-x="780" 
d="M537 641h-199v516l-123 -98l-57 131l198 135h181v-684z" />
    <glyph glyph-name="ordmasculine" unicode="&#xba;" 
d="M705 1081q0 86 -32 117t-90 31t-91 -31t-33 -117q0 -152 123 -151q123 -1 123 151zM584 1354q150 0 226 -76t75 -196q0 -120 -78 -200q-79 -80 -227 -79q-148 0 -224 80q-76 79 -76 197t77 196t227 78z" />
    <glyph glyph-name="guillemotright" unicode="&#xbb;" horiz-adv-x="886" 
d="M483 553l-190 -365h-252l197 369l-199 369h254zM852 553l-190 -365h-250l196 369l-198 369h252z" />
    <glyph glyph-name="onequarter" unicode="&#xbc;" horiz-adv-x="1794" 
d="M1282 313v207l-195 -207h195zM508 641h-197v516l-125 -98l-55 131l197 135h180v-684zM1296 1288l-741 -1288h-236l740 1288h237zM1589 172h-112v-172h-195v172h-299l-59 141l336 371h217v-371h112v-141z" />
    <glyph glyph-name="onehalf" unicode="&#xbd;" horiz-adv-x="1794" 
d="M498 641h-199v516l-123 -98l-57 131l198 135h181v-684zM1282 1288l-743 -1288h-234l742 1288h235zM1653 0h-545l-49 147q60 30 156 90t149 103q88 71 88 128q0 56 -31 74t-95 19q-64 0 -185 -57l-54 149q105 33 147 41t107 8q125 0 219 -53t93 -180q0 -152 -350 -330h350
v-139z" />
    <glyph glyph-name="threequarters" unicode="&#xbe;" horiz-adv-x="1794" 
d="M1317 313v207l-195 -207h195zM682 845q0 -77 -56 -128t-125 -67t-185 -17q-116 0 -214 31l54 149q16 -9 82 -25t122 -16t90 26t33 54q0 58 -57 76t-182 18v133q125 -1 173 13t48 63q0 57 -90 57t-205 -51l-53 152q37 16 117 28t135 13q139 0 217 -50t78 -147
q0 -63 -50 -99t-125 -44q77 -10 135 -51t58 -118zM1368 1288l-743 -1288h-234l742 1288h235zM1624 172h-113v-172h-194v172h-299l-60 141l336 371h217v-371h113v-141z" />
    <glyph glyph-name="questiondown" unicode="&#xbf;" horiz-adv-x="993" 
d="M550 -20q-240 0 -339 85q-43 35 -75 105t-32 152t35 138t85 96t102 76q122 85 120 169v151h273v-161q0 -144 -112 -237q-46 -38 -92 -70q-112 -78 -112 -143q0 -66 29 -94q28 -28 100 -28t191 23t170 49l37 -250q-66 -23 -189 -42t-191 -19zM727 1073h-287v252h287v-252z
" />
    <glyph glyph-name="Agrave" unicode="&#xc0;" horiz-adv-x="1443" 
d="M952 1423h-184l-283 240h271zM858 569l-131 420l-141 -420h272zM1389 0h-345l-106 334h-438l-111 -334h-334l539 1325h295z" />
    <glyph glyph-name="Aacute" unicode="&#xc1;" horiz-adv-x="1443" 
d="M981 1665l-281 -240h-186l197 240h270zM858 569l-131 420l-141 -420h272zM1389 0h-345l-106 334h-438l-111 -334h-334l539 1325h295z" />
    <glyph glyph-name="Acircumflex" unicode="&#xc2;" horiz-adv-x="1443" 
d="M1034 1417h-194l-101 123l-106 -123h-197l213 246h180zM858 569l-131 420l-141 -420h272zM1389 0h-345l-106 334h-438l-111 -334h-334l539 1325h295z" />
    <glyph glyph-name="Atilde" unicode="&#xc3;" horiz-adv-x="1443" 
d="M858 1366q-76 0 -135 49t-84 49q-82 0 -109 -75l-141 65q41 92 98 128t154 36q51 0 113 -50t99 -50q36 0 66 32t39 64l140 -68q-27 -84 -96 -132q-68 -48 -144 -48zM858 569l-131 420l-141 -420h272zM1389 0h-345l-106 334h-438l-111 -334h-334l539 1325h295z" />
    <glyph glyph-name="Adieresis" unicode="&#xc4;" horiz-adv-x="1443" 
d="M688 1370h-246v211h246v-211zM1022 1370h-246v211h246v-211zM858 569l-131 420l-141 -420h272zM1389 0h-345l-106 334h-438l-111 -334h-334l539 1325h295z" />
    <glyph glyph-name="Aring" unicode="&#xc5;" horiz-adv-x="1443" 
d="M836 1544q0 33 -22 57q-22 23 -56 23t-58 -25q-22 -25 -22 -55t24 -54q24 -26 58 -26q36 0 56 24t20 56zM928 1543q0 -71 -49 -120t-120 -49t-121 49t-50 119t49 119t121 49t121 -48t49 -119zM858 569l-131 420l-141 -420h272zM1389 0h-345l-106 334h-438l-111 -334h-334
l539 1325h295z" />
    <glyph glyph-name="AE" unicode="&#xc6;" horiz-adv-x="2113" 
d="M993 569l-53 426l-223 -426h276zM1898 0h-825l-45 334h-438l-176 -334h-359l752 1325h1073v-240h-678l39 -280h596v-240h-555l55 -325h561v-240z" />
    <glyph glyph-name="Ccedilla" unicode="&#xc7;" horiz-adv-x="1210" 
d="M762 1118q-170 0 -247 -110t-77 -352q0 -240 72 -351t240 -110q78 0 126 18t99 41t72 31l94 -260q-193 -68 -385 -68v-4q70 0 110 -51t39 -105q0 -127 -100 -199t-211 -71q-111 0 -229 16l57 191q147 -18 160 -19q98 0 98 78q0 45 -30 61t-134 15l29 108
q-428 111 -428 685q0 293 144 492q144 200 501 202q188 0 364 -58l-94 -260q-160 80 -270 80z" />
    <glyph glyph-name="Egrave" unicode="&#xc8;" horiz-adv-x="1234" 
d="M805 1423h-184l-283 240h270zM1020 0h-832v1325h813v-240h-501v-280h458v-240h-458v-325h520v-240z" />
    <glyph glyph-name="Eacute" unicode="&#xc9;" horiz-adv-x="1234" 
d="M754 1626l-281 -240h-186l196 240h271zM1020 0h-832v1325h813v-240h-501v-280h458v-240h-458v-325h520v-240z" />
    <glyph glyph-name="Ecircumflex" unicode="&#xca;" horiz-adv-x="1234" 
d="M885 1419h-195l-100 123l-107 -123h-196l213 246h180zM1020 0h-832v1325h813v-240h-501v-280h458v-240h-458v-325h520v-240z" />
    <glyph glyph-name="Edieresis" unicode="&#xcb;" horiz-adv-x="1234" 
d="M580 1370h-246v211h246v-211zM913 1370h-245v211h245v-211zM1020 0h-832v1325h813v-240h-501v-280h458v-240h-458v-325h520v-240z" />
    <glyph glyph-name="Igrave" unicode="&#xcc;" horiz-adv-x="638" 
d="M567 1417h-184l-283 240h271zM475 0h-311v1325h311v-1325z" />
    <glyph glyph-name="Iacute" unicode="&#xcd;" horiz-adv-x="638" 
d="M565 1657l-280 -240h-187l197 240h270zM473 0h-311v1325h311v-1325z" />
    <glyph glyph-name="Icircumflex" unicode="&#xce;" horiz-adv-x="638" 
d="M618 1401h-194l-100 123l-107 -123h-197l213 246h181zM475 0h-311v1325h311v-1325z" />
    <glyph glyph-name="Idieresis" unicode="&#xcf;" horiz-adv-x="638" 
d="M276 1479h-245v211h245v-211zM610 1479h-245v211h245v-211zM467 0h-311v1325h311v-1325z" />
    <glyph glyph-name="Eth" unicode="&#xd0;" horiz-adv-x="1423" 
d="M927 347q58 98 58 336t-82 325q-29 31 -51 45q-49 32 -178 32h-174v-239h157v-213h-157v-393h192q53 0 90 6t78 32t67 69zM674 1325q322 1 478 -151t155 -510q0 -358 -152 -511t-481 -153h-486v633h-129v213h129v479h486z" />
    <glyph glyph-name="Ntilde" unicode="&#xd1;" horiz-adv-x="1542" 
d="M896 1368q-76 0 -134 49q-59 49 -84 49q-82 0 -109 -75l-141 65q41 92 98 128t154 36q52 0 114 -50t98 -50t66 32t39 64l140 -68q-27 -84 -96 -132t-145 -48zM1354 0h-471l-396 956v-956h-299v1325h467l392 -956v956h307v-1325z" />
    <glyph glyph-name="Ograve" unicode="&#xd2;" horiz-adv-x="1529" 
d="M903 1423h-184l-283 240h271zM1092 662q0 248 -81 350t-245 102t-246 -103t-82 -361t80 -354q80 -97 249 -97t247 108t78 355zM1413 657q0 -319 -152 -509q-153 -189 -493 -189q-651 0 -651 698q0 304 150 500q150 195 503 197q643 -1 643 -697z" />
    <glyph glyph-name="Oacute" unicode="&#xd3;" horiz-adv-x="1529" 
d="M991 1665l-280 -240h-187l197 240h270zM1092 662q0 248 -81 350t-245 102t-246 -103t-82 -361t80 -354q80 -97 249 -97t247 108t78 355zM1413 657q0 -319 -152 -509q-153 -189 -493 -189q-651 0 -651 698q0 304 150 500q150 195 503 197q643 -1 643 -697z" />
    <glyph glyph-name="Ocircumflex" unicode="&#xd4;" horiz-adv-x="1529" 
d="M1057 1419h-195l-100 123l-107 -123h-196l213 246h180zM1092 662q0 248 -81 350t-245 102t-246 -103t-82 -361t80 -354q80 -97 249 -97t247 108t78 355zM1413 657q0 -319 -152 -509q-153 -189 -493 -189q-651 0 -651 698q0 304 150 500q150 195 503 197q643 -1 643 -697z
" />
    <glyph glyph-name="Otilde" unicode="&#xd5;" horiz-adv-x="1529" 
d="M898 1368q-76 0 -134 49q-59 49 -84 49q-82 0 -109 -75l-141 65q41 92 98 128t154 36q52 0 114 -50t98 -50t66 32t39 64l140 -68q-27 -84 -96 -132t-145 -48zM1092 662q0 248 -81 350t-245 102t-246 -103t-82 -361t80 -354q80 -97 249 -97t247 108t78 355zM1413 657
q0 -319 -152 -509q-153 -189 -493 -189q-651 0 -651 698q0 304 150 500q150 195 503 197q643 -1 643 -697z" />
    <glyph glyph-name="Odieresis" unicode="&#xd6;" horiz-adv-x="1529" 
d="M725 1370h-246v211h246v-211zM1059 1370h-246v211h246v-211zM1092 662q0 248 -81 350t-245 102t-246 -103t-82 -361t80 -354q80 -97 249 -97t247 108t78 355zM1413 657q0 -319 -152 -509q-153 -189 -493 -189q-651 0 -651 698q0 304 150 500q150 195 503 197
q643 -1 643 -697z" />
    <glyph glyph-name="multiply" unicode="&#xd7;" 
d="M1075 213l-164 -164l-329 330l-330 -330l-164 164l330 330l-330 329l164 164l330 -329l329 329l164 -164l-330 -329z" />
    <glyph glyph-name="Oslash" unicode="&#xd8;" horiz-adv-x="1529" 
d="M1092 657q0 31 -1 82t-1 72l-504 -586q61 -27 182 -26q168 0 246 108t78 350zM768 1114q-166 0 -248 -103t-82 -354q0 -100 6 -174l506 588q-72 43 -182 43zM1413 657q0 -319 -152 -509q-153 -189 -493 -189q-209 0 -354 64l-178 -209l-203 184l184 217
q-100 166 -100 456t150 486q150 195 503 197q213 0 360 -74l148 172l201 -184l-156 -185q90 -162 90 -426z" />
    <glyph glyph-name="Ugrave" unicode="&#xd9;" horiz-adv-x="1525" 
d="M897 1423h-184l-283 240h270zM1337 485q0 -260 -146 -393t-415 -133q-588 0 -588 530v836h312v-815q0 -198 91 -260q72 -51 183 -51q112 -1 182 73t70 238v815h311v-840z" />
    <glyph glyph-name="Uacute" unicode="&#xda;" horiz-adv-x="1525" 
d="M1057 1624l-281 -240h-186l196 240h271zM1337 485q0 -260 -146 -393t-415 -133q-588 0 -588 530v836h312v-815q0 -198 91 -260q72 -51 183 -51q112 -1 182 73t70 238v815h311v-840z" />
    <glyph glyph-name="Ucircumflex" unicode="&#xdb;" horiz-adv-x="1525" 
d="M1067 1419h-195l-100 123l-106 -123h-197l213 246h180zM1337 485q0 -260 -146 -393t-415 -133q-588 0 -588 530v836h312v-815q0 -198 91 -260q72 -51 183 -51q112 -1 182 73t70 238v815h311v-840z" />
    <glyph glyph-name="Udieresis" unicode="&#xdc;" horiz-adv-x="1525" 
d="M731 1370h-246v211h246v-211zM1065 1370h-246v211h246v-211zM1337 485q0 -260 -146 -393t-415 -133q-588 0 -588 530v836h312v-815q0 -198 91 -260q72 -51 183 -51q112 -1 182 73t70 238v815h311v-840z" />
    <glyph glyph-name="Yacute" unicode="&#xdd;" horiz-adv-x="1327" 
d="M786 1657l-280 -240h-187l197 240h270zM813 0h-311v588l-475 737h354l289 -463l291 463h339l-487 -729v-596z" />
    <glyph glyph-name="Thorn" unicode="&#xde;" horiz-adv-x="1273" 
d="M860 664q0 78 -15 114q-29 72 -155 72h-190v-348h200q66 0 113 42t47 120zM1176 682q0 -420 -459 -420h-217v-262h-312v1325h312v-235h194q482 0 482 -408z" />
    <glyph glyph-name="germandbls" unicode="&#xdf;" horiz-adv-x="1142" 
d="M1055 222q1 -104 -57 -200t-153 -150q-189 -108 -431 -108l98 236q127 0 190 79q64 79 64 155q1 192 -108 247q-51 27 -114 42t-77 20v219q7 0 27 16t53 39q33 24 56 60t33 70q9 34 9 77t-35 75q-35 31 -82 31t-82 -30t-34 -113v-987h-281v965q1 186 107 283t284 98
q412 0 412 -336q0 -145 -67 -212t-120 -93q-53 -27 -61 -31q12 -6 64 -24t82 -29q30 -13 77 -47t75 -73q71 -101 71 -279z" />
    <glyph glyph-name="agrave" unicode="&#xe0;" horiz-adv-x="1112" 
d="M678 397h-45q-258 0 -258 -139q0 -72 143 -72q68 1 160 103v108zM698 1085h-184l-283 240h271zM731 0q-2 0 -20 47l-17 39q-2 -2 -18 -14t-31 -25t-32 -21q-17 -10 -33 -20t-28 -14l-36 -12q-23 -8 -55 -9q-377 0 -377 275q0 352 520 352h72v31q0 33 -3 53t-29 44t-75 24
q-182 0 -354 -82l-96 229q201 68 469 68q168 0 269 -76t101 -223v-379q0 -43 18 -149t23 -138h-268z" />
    <glyph glyph-name="aacute" unicode="&#xe1;" horiz-adv-x="1112" 
d="M678 397h-45q-258 0 -258 -139q0 -72 143 -72q68 1 160 103v108zM772 1325l-280 -240h-187l197 240h270zM731 0q-2 0 -20 47l-17 39q-2 -2 -18 -14t-31 -25t-32 -21q-17 -10 -33 -20t-28 -14l-36 -12q-23 -8 -55 -9q-377 0 -377 275q0 352 520 352h72v31q0 33 -3 53
t-29 44t-75 24q-182 0 -354 -82l-96 229q201 68 469 68q168 0 269 -76t101 -223v-379q0 -43 18 -149t23 -138h-268z" />
    <glyph glyph-name="acircumflex" unicode="&#xe2;" horiz-adv-x="1112" 
d="M678 397h-45q-258 0 -258 -139q0 -72 143 -72q68 1 160 103v108zM813 1079h-195l-100 123l-106 -123h-197l213 246h180zM731 0q-2 0 -20 47l-17 39q-2 -2 -18 -14t-31 -25t-32 -21q-17 -10 -33 -20t-28 -14l-36 -12q-23 -8 -55 -9q-377 0 -377 275q0 352 520 352h72v31
q0 33 -3 53t-29 44t-75 24q-182 0 -354 -82l-96 229q201 68 469 68q168 0 269 -76t101 -223v-379q0 -43 18 -149t23 -138h-268z" />
    <glyph glyph-name="atilde" unicode="&#xe3;" horiz-adv-x="1112" 
d="M678 397h-45q-258 0 -258 -139q0 -72 143 -72q68 1 160 103v108zM638 1024q-76 0 -134 49q-59 49 -84 49q-82 0 -109 -75l-141 65q41 92 98 128t154 36q52 0 114 -50t98 -50t66 32t39 64l140 -68q-27 -84 -96 -132t-145 -48zM731 0q-2 0 -20 47l-17 39q-2 -2 -18 -14
t-31 -25t-32 -21q-17 -10 -33 -20t-28 -14l-36 -12q-23 -8 -55 -9q-377 0 -377 275q0 352 520 352h72v31q0 33 -3 53t-29 44t-75 24q-182 0 -354 -82l-96 229q201 68 469 68q168 0 269 -76t101 -223v-379q0 -43 18 -149t23 -138h-268z" />
    <glyph glyph-name="adieresis" unicode="&#xe4;" horiz-adv-x="1112" 
d="M678 397h-45q-258 0 -258 -139q0 -72 143 -72q68 1 160 103v108zM836 1067h-248v223h248v-223zM500 1067h-248v223h248v-223zM731 0q-2 0 -20 47l-17 39q-2 -2 -18 -14t-31 -25t-32 -21q-17 -10 -33 -20t-28 -14l-36 -12q-23 -8 -55 -9q-377 0 -377 275q0 352 520 352h72
v31q0 33 -3 53t-29 44t-75 24q-182 0 -354 -82l-96 229q201 68 469 68q168 0 269 -76t101 -223v-379q0 -43 18 -149t23 -138h-268z" />
    <glyph glyph-name="aring" unicode="&#xe5;" horiz-adv-x="1112" 
d="M608 1208q0 33 -21 57q-22 23 -57 23q-36 0 -58 -24t-22 -55q0 -29 24 -55t58 -26t56 24q20 24 20 56zM678 397h-45q-258 0 -258 -139q0 -72 143 -72q68 1 160 103v108zM700 1207q0 -71 -49 -120t-120 -49t-121 49t-50 119t50 119t120 49q72 0 121 -48t49 -119zM731 0
q-2 0 -20 47l-17 39q-2 -2 -18 -14t-31 -25t-32 -21q-17 -10 -33 -20t-28 -14l-36 -12q-23 -8 -55 -9q-377 0 -377 275q0 352 520 352h72v31q0 33 -3 53t-29 44t-75 24q-182 0 -354 -82l-96 229q201 68 469 68q168 0 269 -76t101 -223v-379q0 -43 18 -149t23 -138h-268z" />
    <glyph glyph-name="ae" unicode="&#xe6;" horiz-adv-x="1685" 
d="M676 397h-43q-258 0 -258 -139q0 -72 143 -72q26 0 42 6q14 6 24 11q10 4 20 12t16 13q17 13 28 27q11 15 28 32v110zM1130 750q-48 0 -89 -22q-78 -42 -85 -173h363q-18 195 -189 195zM1597 348h-641q33 -170 203 -170q129 0 289 80l92 -213q-166 -74 -397 -74
q-127 0 -225 48t-130 114q-162 -162 -327 -162q-377 0 -377 275q0 352 520 352h70v35q0 33 -4 53t-29 42t-72 22q-182 0 -354 -82l-96 229q190 68 469 68q141 0 270 -80q127 80 270 80q262 1 366 -143t103 -474z" />
    <glyph glyph-name="ccedilla" unicode="&#xe7;" horiz-adv-x="976" 
d="M756 -203q0 -133 -94 -201t-205 -69q-111 0 -230 16l66 181q147 -18 169 -18t55 22q32 24 32 66t-33 58t-137 17l31 121q-160 43 -243 168t-83 303q0 237 124 371t370 135q58 0 166 -25t167 -49l-104 -223q-12 4 -93 42t-139 40q-106 0 -155 -60t-49 -231
q0 -276 202 -277q74 0 242 80l107 -221q-88 -45 -299 -70l-9 -24q70 0 106 -48t36 -104z" />
    <glyph glyph-name="egrave" unicode="&#xe8;" horiz-adv-x="1107" 
d="M719 1085h-184l-283 240h270zM551 750q-46 0 -87 -22q-81 -44 -85 -173h360q-18 195 -188 195zM1020 348h-643q33 -170 203 -170q129 0 288 80l93 -213q-167 -74 -395 -74q-228 1 -355 141t-127 347q0 149 59 271q112 235 406 235q263 1 367 -143t104 -474z" />
    <glyph glyph-name="eacute" unicode="&#xe9;" horiz-adv-x="1107" 
d="M862 1325l-280 -240h-187l197 240h270zM551 750q-46 0 -87 -22q-81 -44 -85 -173h360q-18 195 -188 195zM1020 348h-643q33 -170 203 -170q129 0 288 80l93 -213q-167 -74 -395 -74q-228 1 -355 141t-127 347q0 149 59 271q112 235 406 235q263 1 367 -143t104 -474z" />
    <glyph glyph-name="ecircumflex" unicode="&#xea;" horiz-adv-x="1107" 
d="M879 1079h-195l-100 123l-107 -123h-196l213 246h180zM551 750q-46 0 -87 -22q-81 -44 -85 -173h360q-18 195 -188 195zM1020 348h-643q33 -170 203 -170q129 0 288 80l93 -213q-167 -74 -395 -74q-228 1 -355 141t-127 347q0 149 59 271q112 235 406 235q263 1 367 -143
t104 -474z" />
    <glyph glyph-name="edieresis" unicode="&#xeb;" horiz-adv-x="1107" 
d="M532 1073h-245v211h245v-211zM866 1073h-245v211h245v-211zM551 750q-46 0 -87 -22q-81 -44 -85 -173h360q-18 195 -188 195zM1020 348h-643q33 -170 203 -170q129 0 288 80l93 -213q-167 -74 -395 -74q-228 1 -355 141t-127 347q0 149 59 271q112 235 406 235
q263 1 367 -143t104 -474z" />
    <glyph glyph-name="igrave" unicode="&#xec;" horiz-adv-x="544" 
d="M453 0h-279v936h279v-936zM510 1085h-184l-283 240h270z" />
    <glyph glyph-name="iacute" unicode="&#xed;" horiz-adv-x="544" 
d="M412 0h-279v936h279v-936zM502 1325l-281 -240h-186l196 240h271z" />
    <glyph glyph-name="icircumflex" unicode="&#xee;" horiz-adv-x="544" 
d="M412 0h-279v936h279v-936zM571 1079h-194l-101 123l-106 -123h-197l213 246h181z" />
    <glyph glyph-name="idieresis" unicode="&#xef;" horiz-adv-x="544" 
d="M412 0h-279v936h279v-936zM229 1128h-245v211h245v-211zM563 1128h-246v211h246v-211z" />
    <glyph glyph-name="eth" unicode="&#xf0;" 
d="M406 369q0 -174 172 -174q80 0 129 55t49 227q-25 61 -68 94t-125 33q-160 0 -160 -180q0 -43 3 -55zM1067 580q0 -616 -500 -617q-188 0 -329 112t-142 294q0 467 441 467q75 0 143 -38t94 -87q0 127 -54 215t-149 127l-151 -101l-189 111l95 63h-15q-59 0 -125 -12
l-86 248h54q254 0 428 -57l112 81l183 -110l-101 -70q291 -182 291 -626z" />
    <glyph glyph-name="ntilde" unicode="&#xf1;" horiz-adv-x="1124" 
d="M657 1024q-76 0 -135 49t-84 49q-82 0 -108 -75l-142 65q40 92 98 128t154 36q52 0 114 -50t98 -50t66 32t40 64l139 -68q-27 -84 -95 -132t-145 -48zM993 0h-280v608q0 108 -49 133q-25 13 -73 13t-91 -49t-88 -138v-567h-281v737q0 39 -27 199h261l41 -115q4 4 27 29
q82 86 149 106q33 10 67 11q199 1 272 -97t72 -280v-590z" />
    <glyph glyph-name="ograve" unicode="&#xf2;" horiz-adv-x="1140" 
d="M764 1085h-184l-283 240h270zM770 473q0 164 -47 222q-47 59 -149 59t-153 -60q-50 -60 -50 -221q-1 -291 199 -291t200 291zM1057 474q0 -220 -120 -362t-367 -142q-246 0 -366 140q-120 142 -120 359t121 357t369 140t365 -136q118 -136 118 -356z" />
    <glyph glyph-name="oacute" unicode="&#xf3;" horiz-adv-x="1140" 
d="M846 1325l-281 -240h-186l196 240h271zM770 473q0 164 -47 222q-47 59 -149 59t-153 -60q-50 -60 -50 -221q-1 -291 199 -291t200 291zM1057 474q0 -220 -120 -362t-367 -142q-246 0 -366 140q-120 142 -120 359t121 357t369 140t365 -136q118 -136 118 -356z" />
    <glyph glyph-name="ocircumflex" unicode="&#xf4;" horiz-adv-x="1140" 
d="M870 1079h-194l-101 123l-106 -123h-197l213 246h181zM770 473q0 164 -47 222q-47 59 -149 59t-153 -60q-50 -60 -50 -221q-1 -291 199 -291t200 291zM1057 474q0 -220 -120 -362t-367 -142q-246 0 -366 140q-120 142 -120 359t121 357t369 140t365 -136
q118 -136 118 -356z" />
    <glyph glyph-name="otilde" unicode="&#xf5;" horiz-adv-x="1140" 
d="M674 1024q-76 0 -135 49t-84 49q-82 0 -109 -75l-141 65q41 92 98 128t154 36q51 0 113 -50t98 -50t66 32t40 64l139 -68q-27 -84 -95 -132t-144 -48zM770 473q0 164 -47 222q-47 59 -149 59t-153 -60q-50 -60 -50 -221q-1 -291 199 -291t200 291zM1057 474
q0 -220 -120 -362t-367 -142q-246 0 -366 140q-120 142 -120 359t121 357t369 140t365 -136q118 -136 118 -356z" />
    <glyph glyph-name="odieresis" unicode="&#xf6;" horiz-adv-x="1140" 
d="M539 1073h-246v211h246v-211zM872 1073h-245v211h245v-211zM770 473q0 164 -47 222q-47 59 -149 59t-153 -60q-50 -60 -50 -221q-1 -291 199 -291t200 291zM1057 474q0 -220 -120 -362t-367 -142q-246 0 -366 140q-120 142 -120 359t121 357t369 140t365 -136
q118 -136 118 -356z" />
    <glyph glyph-name="divide" unicode="&#xf7;" 
d="M723 8h-289v254h289v-254zM1057 362h-955v179h955v-179zM723 631h-289v254h289v-254z" />
    <glyph glyph-name="oslash" unicode="&#xf8;" horiz-adv-x="1140" 
d="M770 473q0 29 2 43l-291 -319q41 -14 90 -15q199 0 199 291zM371 473q0 -10 -6 -27l284 314l-78 -6q-100 0 -150 -60t-50 -221zM84 473q0 213 121 353t366 141q143 0 236 -31l96 102l182 -178l-92 -102q63 -113 64 -285q0 -219 -120 -361t-366 -143q-143 0 -254 49
l-98 -110l-184 178l104 119q-55 113 -55 268z" />
    <glyph glyph-name="ugrave" unicode="&#xf9;" horiz-adv-x="1110" 
d="M131 346v590h281v-608q0 -43 4 -69q4 -25 30 -51t65 -26q41 0 65 14t48 46q24 33 74 127v567h281v-737q0 -39 27 -199h-261l-40 115q-2 -2 -35 -37q-34 -35 -54 -52q-20 -16 -62 -36t-85 -21q-188 1 -263 99t-75 278zM725 1085h-184l-283 240h270z" />
    <glyph glyph-name="uacute" unicode="&#xfa;" horiz-adv-x="1110" 
d="M823 1325l-280 -240h-187l197 240h270zM131 346v590h281v-608q0 -43 4 -69q4 -25 30 -51t65 -26q41 0 65 14t48 46q24 33 74 127v567h281v-737q0 -39 27 -199h-261l-40 115q-2 -2 -35 -37q-34 -35 -54 -52q-20 -16 -62 -36t-85 -21q-188 1 -263 99t-75 278z" />
    <glyph glyph-name="ucircumflex" unicode="&#xfb;" horiz-adv-x="1110" 
d="M842 1079h-195l-100 123l-107 -123h-196l213 246h180zM131 346v590h281v-608q0 -43 4 -69q4 -25 30 -51t65 -26q41 0 65 14t48 46q24 33 74 127v567h281v-737q0 -39 27 -199h-261l-40 115q-2 -2 -35 -37q-34 -35 -54 -52q-20 -16 -62 -36t-85 -21q-188 1 -263 99t-75 278
z" />
    <glyph glyph-name="udieresis" unicode="&#xfc;" horiz-adv-x="1110" 
d="M510 1073h-246v211h246v-211zM844 1073h-246v211h246v-211zM131 346v590h281v-608q0 -43 4 -69q4 -25 30 -51t65 -26q41 0 65 14t48 46q24 33 74 127v567h281v-737q0 -39 27 -199h-261l-40 115q-2 -2 -35 -37q-34 -35 -54 -52q-20 -16 -62 -36t-85 -21q-188 1 -263 99
t-75 278z" />
    <glyph glyph-name="yacute" unicode="&#xfd;" horiz-adv-x="1130" 
d="M784 1325l-280 -240h-187l197 240h270zM1061 936l-412 -1086q-111 -295 -391 -389l-96 228q145 39 180 133l82 217l-354 897h299l192 -582l205 582h295z" />
    <glyph glyph-name="thorn" unicode="&#xfe;" horiz-adv-x="1128" 
d="M758 469q0 164 -45 222t-123 59q-35 0 -70 -31t-53 -61t-59 -99v-227q59 -145 155 -146q195 0 195 283zM1044 473q0 -213 -114 -357t-318 -145q-78 0 -132 37t-74 78l-48 -457h-260q10 76 22 318q11 242 11 340v1059h281v-525q109 143 239 144q199 1 296 -139t97 -353z
" />
    <glyph glyph-name="ydieresis" unicode="&#xff;" 
d="M551 1067h-246v211h246v-211zM885 1067h-246v211h246v-211zM1061 936l-412 -1086q-111 -295 -391 -389l-96 228q145 39 180 133l82 217l-354 897h299l192 -582l205 582h295z" />
    <glyph glyph-name="dotlessi" unicode="&#x131;" horiz-adv-x="544" 
d="M412 0h-279v936h279v-936z" />
    <glyph glyph-name="Lslash" unicode="&#x141;" horiz-adv-x="1034" 
d="M1024 0h-836v449l-114 -78l-135 204l249 166v584h312v-373l69 45l136 -204l-205 -136v-411h524v-246z" />
    <glyph glyph-name="lslash" unicode="&#x142;" horiz-adv-x="638" 
d="M475 0h-311v438l-103 -67l-135 204l238 158v592h311v-385l135 90l135 -203l-270 -180v-647z" />
    <glyph glyph-name="OE" unicode="&#x152;" horiz-adv-x="2158" 
d="M1071 662q0 252 -71 352q-70 100 -234 100t-246 -103t-82 -361t80 -354q80 -97 249 -97t237 105q67 105 67 358zM1944 0h-906q-113 -41 -270 -41q-651 0 -651 698q0 304 150 500q150 195 503 197q129 0 231 -29h924v-240h-606q55 -156 70 -280h493v-240h-491
q-10 -166 -70 -325h623v-240z" />
    <glyph glyph-name="oe" unicode="&#x153;" horiz-adv-x="1781" 
d="M770 473q0 164 -47 222q-47 59 -149 59t-153 -60q-50 -60 -50 -221q-1 -291 199 -291t200 291zM1225 750q-45 0 -88 -22q-80 -43 -84 -173h360q-18 195 -188 195zM1694 348h-643q33 -170 202 -170q129 0 289 80l92 -213q-166 -74 -376 -74t-345 103q-135 -104 -363 -104
t-346 140q-120 142 -120 359t121 357t348 140t360 -96q123 94 310 95q263 1 367 -143t104 -474z" />
    <glyph glyph-name="Scaron" unicode="&#x160;" horiz-adv-x="1261" 
d="M915 1657l-210 -246h-181l-207 246h197l100 -125l107 125h194zM1135 345q0 -239 -183 -318q-153 -68 -369 -68t-456 66l94 260q229 -86 348 -86q119 -1 185 27t65 114q0 59 -51 103t-128 71t-167 66t-167 82q-77 44 -128 126t-51 201t84 206q154 159 446 159
q197 0 371 -60l-94 -260q-12 4 -81 36t-115 38t-98 6t-100 -14q-46 -14 -71 -46t-26 -77t51 -82t128 -59t166 -61q90 -38 167 -85t129 -136t51 -209z" />
    <glyph glyph-name="scaron" unicode="&#x161;" horiz-adv-x="960" 
d="M780 1325l-211 -246h-180l-207 246h197l100 -125l107 125h194zM881 258q0 -289 -432 -289q-164 0 -375 68l96 229q27 -8 109 -45t160 -38q77 -1 110 11t39 25q6 12 6 31v6q0 27 -51 44q-51 16 -124 36t-146 53t-123 108t-52 185q0 285 418 285q145 0 336 -58l-94 -227
q-106 49 -153 60q-46 11 -87 12q-133 0 -133 -66q0 -36 51 -60t124 -46t146 -53q73 -33 124 -101t51 -170z" />
    <glyph glyph-name="Ydieresis" unicode="&#x178;" horiz-adv-x="1327" 
d="M639 1454h-242v215h242v-215zM969 1454h-244v215h244v-215zM813 0h-311v588l-475 737h354l289 -463l291 463h339l-487 -729v-596z" />
    <glyph glyph-name="Zcaron" unicode="&#x17d;" horiz-adv-x="1171" 
d="M844 1663l-211 -246h-180l-207 246h196l101 -125l106 125h195zM1069 242v-242h-905l-78 250l664 833h-588v242h846l77 -250l-659 -833h643z" />
    <glyph glyph-name="zcaron" unicode="&#x17e;" horiz-adv-x="944" 
d="M735 1325l-211 -246h-180l-207 246h197l100 -125l107 125h194zM864 215v-215h-725l-96 229l539 492h-465v215h690l94 -229l-530 -492h493z" />
    <glyph glyph-name="florin" unicode="&#x192;" 
d="M915 1122q-102 0 -165 -42t-72 -107l-4 -37h172l-33 -188h-172l-192 -1117h-248l194 1117h-141l31 188h141l8 57q28 200 188 279q117 58 201 72q83 14 97 18l10 -240h-15z" />
    <glyph glyph-name="circumflex" unicode="&#x2c6;" horiz-adv-x="544" 
d="M571 1079h-194l-101 123l-106 -123h-197l213 246h181z" />
    <glyph glyph-name="caron" unicode="&#x2c7;" horiz-adv-x="544" 
d="M571 1325l-211 -246h-180l-207 246h197l100 -125l107 125h194z" />
    <glyph glyph-name="breve" unicode="&#x2d8;" horiz-adv-x="544" 
d="M264 971q-134 -1 -229 73q-96 74 -125 160l141 82q12 -49 80 -92t145 -43t139 43t79 92l143 -82q-33 -82 -136 -158t-237 -75z" />
    <glyph glyph-name="dotaccent" unicode="&#x2d9;" horiz-adv-x="544" 
d="M418 1104h-291v221h291v-221z" />
    <glyph glyph-name="ring" unicode="&#x2da;" horiz-adv-x="544" 
d="M270 1208q0 33 -21 57q-23 23 -57 23t-57 -24t-23 -55q0 -29 24 -55t59 -26t55 24t20 56zM193 1374q73 0 121 -48t48 -119t-49 -120t-119 -49t-121 49q-50 49 -50 119t49 119t121 49z" />
    <glyph glyph-name="ogonek" unicode="&#x2db;" horiz-adv-x="544" 
d="M309 -475q-156 1 -218 65t-62 166q1 102 65 176q64 76 119 101h274q-88 -39 -168 -117q-79 -78 -79 -126t28 -70t71 -22q42 0 74 18q32 17 36 18l86 -170q-139 -39 -226 -39z" />
    <glyph glyph-name="tilde" unicode="&#x2dc;" horiz-adv-x="544" 
d="M386 1024q-76 0 -134 49q-59 49 -84 49q-82 0 -109 -75l-141 65q41 92 98 128t154 36q52 0 114 -50t98 -50t66 32t39 64l140 -68q-27 -84 -96 -132t-145 -48z" />
    <glyph glyph-name="hungarumlaut" unicode="&#x2dd;" horiz-adv-x="544" 
d="M399 1319l-282 -240h-187l197 240h272zM733 1319l-282 -240h-185l197 240h270z" />
    <glyph glyph-name="Delta" unicode="&#x394;" horiz-adv-x="1630" 
d="M1196 205l-379 913l-379 -913h758zM1520 0h-1409l571 1325h266z" />
    <glyph glyph-name="Delta" unicode="&#x2206;" horiz-adv-x="1630" 
d="M1196 205l-379 913l-379 -913h758zM1520 0h-1409l571 1325h266z" />
    <glyph glyph-name="Omega" unicode="&#x3a9;" horiz-adv-x="1542" 
d="M1087 193h275v-193h-528v305q154 27 204 128t52 306q0 98 -24 172t-55 112q-77 91 -237 91q-324 0 -323 -377q0 -207 53 -308t205 -124v-305h-531v193h277v4q-168 53 -248 201t-80 335q0 291 172 456t472 165t472 -164t172 -439t-135 -433q-76 -87 -193 -121v-4z" />
    <glyph glyph-name="Omega" unicode="&#x2126;" horiz-adv-x="1542" 
d="M1087 193h275v-193h-528v305q154 27 204 128t52 306q0 98 -24 172t-55 112q-77 91 -237 91q-324 0 -323 -377q0 -207 53 -308t205 -124v-305h-531v193h277v4q-168 53 -248 201t-80 335q0 291 172 456t472 165t472 -164t172 -439t-135 -433q-76 -87 -193 -121v-4z" />
    <glyph glyph-name="pi" unicode="&#x3c0;" 
d="M707 729h-261v-729h-233v729h-166v207h1045v-207h-152v-524q0 -101 38 -145t152 -60l-53 -190q-371 72 -370 387v532z" />
    <glyph glyph-name="endash" unicode="&#x2013;" horiz-adv-x="1024" 
d="M1026 383h-1028v205h1028v-205z" />
    <glyph glyph-name="emdash" unicode="&#x2014;" horiz-adv-x="2048" 
d="M2050 362h-2052v226h2052v-226z" />
    <glyph glyph-name="quoteleft" unicode="&#x2018;" horiz-adv-x="579" 
d="M477 1327l-174 -385h-211l203 385h182z" />
    <glyph glyph-name="quoteright" unicode="&#x2019;" horiz-adv-x="579" 
d="M475 1327l-203 -385h-184l176 385h211z" />
    <glyph glyph-name="quotesinglbase" unicode="&#x201a;" horiz-adv-x="579" 
d="M475 205l-203 -385h-184l176 385h211z" />
    <glyph glyph-name="quotedblleft" unicode="&#x201c;" horiz-adv-x="886" 
d="M467 1327l-174 -385h-211l203 385h182zM805 1327l-174 -385h-211l201 385h184z" />
    <glyph glyph-name="quotedblright" unicode="&#x201d;" horiz-adv-x="886" 
d="M467 1327l-201 -385h-184l174 385h211zM805 1327l-203 -385h-180l174 385h209z" />
    <glyph glyph-name="quotedblbase" unicode="&#x201e;" horiz-adv-x="886" 
d="M467 205l-201 -385h-184l174 385h211zM805 205l-203 -385h-180l174 385h209z" />
    <glyph glyph-name="dagger" unicode="&#x2020;" 
d="M1083 616h-389v-985h-229v985h-389v209h389v445h229v-445h389v-209z" />
    <glyph glyph-name="daggerdbl" unicode="&#x2021;" 
d="M1083 307h-389v-307h-229v307h-389v207h389v301h-389v209h389v301h229v-301h389v-209h-389v-301h389v-207z" />
    <glyph glyph-name="bullet" unicode="&#x2022;" 
d="M889 664q0 -128 -90 -220t-220 -92t-220 90q-89 90 -89 222t90 220q90 89 220 89t219 -90q90 -90 90 -219z" />
    <glyph glyph-name="ellipsis" unicode="&#x2026;" horiz-adv-x="1740" 
d="M434 0h-289v254h289v-254zM1014 0h-289v254h289v-254zM1595 0h-290v254h290v-254z" />
    <glyph glyph-name="perthousand" unicode="&#x2030;" horiz-adv-x="2449" 
d="M388 774q70 0 94 54q26 54 26 174t-25 165t-95 45t-92 -49t-22 -171t22 -170t92 -48zM1425 341q0 120 -24 165q-25 45 -93 45t-92 -49q-22 -49 -22 -171t20 -170t90 -48t96 54q25 54 25 174zM2058 551q-70 0 -92 -49t-22 -171t22 -170t90 -48q70 0 96 54t25 174
q0 120 -25 165q-24 45 -94 45zM707 999q0 -182 -76 -274t-241 -92q-164 0 -238 92t-74 276q0 352 313 353q166 0 241 -86t75 -269zM1329 1288l-743 -1288h-234l742 1288h235zM1309 692q165 0 239 -86t74 -268t-75 -274t-239 -93q-164 0 -239 92q-74 92 -74 277
q0 352 314 352zM2372 338q0 -182 -74 -274t-239 -93q-165 0 -239 92t-73 277q0 352 313 352q166 0 239 -86t73 -268z" />
    <glyph glyph-name="guilsinglleft" unicode="&#x2039;" horiz-adv-x="579" 
d="M530 926l-198 -369l196 -369h-252l-190 365l190 373h254z" />
    <glyph glyph-name="guilsinglright" unicode="&#x203a;" horiz-adv-x="579" 
d="M524 553l-190 -365h-252l197 369l-199 369h254z" />
    <glyph glyph-name="fraction" unicode="&#x2044;" horiz-adv-x="462" 
d="M721 1288l-744 -1288h-233l741 1288h236z" />
    <glyph glyph-name="Euro" unicode="&#x20ac;" horiz-adv-x="1105" 
d="M778 1114q-223 0 -280 -174h520l-78 -240h-471v-59h451l-78 -240h-350q28 -109 92 -155t172 -47q108 0 209 44q23 9 69 28t62 26v-289q-129 -49 -324 -49q-510 0 -602 442h-233l77 240h133v59h-210l77 240h162q106 414 602 414q199 -1 363 -54l-82 -249q-156 63 -281 63z
" />
    <glyph glyph-name="trademark" unicode="&#x2122;" horiz-adv-x="1918" 
d="M733 1196h-213v-600h-182v600h-213v129h608v-129zM1782 596h-183v549l-198 -549h-203l-199 549v-549h-176v729h310l174 -506l176 506h299v-729z" />
    <glyph glyph-name="partialdiff" unicode="&#x2202;" 
d="M406 369q0 -174 172 -174q80 0 129 55t49 227q-25 61 -68 94t-125 33q-160 0 -160 -180q0 -43 3 -55zM1067 580q0 -616 -500 -617q-188 0 -329 112t-142 294q0 467 441 467q75 0 143 -38t94 -87q0 116 -53 215q-65 118 -245 118q-94 0 -210 -61l-88 252q154 41 296 41
q264 0 405 -151q188 -206 188 -545z" />
    <glyph glyph-name="product" unicode="&#x220f;" 
d="M1118 -369h-229v1612h-619v-1612h-229v1807h1077v-1807z" />
    <glyph glyph-name="summation" unicode="&#x2211;" 
d="M1116 -369h-1034v183l571 725l-544 716v183h985v-203h-697l531 -696l-561 -705h749v-203z" />
    <glyph glyph-name="minus" unicode="&#x2212;" 
d="M1057 362h-955v179h955v-179z" />
    <glyph glyph-name="radical" unicode="&#x221a;" 
d="M39 373v209h305l238 -605l346 1553h237l-381 -1790h-374l-260 633h-111z" />
    <glyph glyph-name="infinity" unicode="&#x221e;" horiz-adv-x="1630" 
d="M493 610q-46 0 -81 -37t-35 -109t38 -109q37 -36 75 -36t98 43q59 44 92 105q-33 59 -87 101t-100 42zM1251 462q1 72 -29 110t-79 38t-90 -34t-97 -109q94 -147 189 -148q45 0 76 35q30 35 30 108zM1526 463q0 -136 -82 -248q-82 -111 -299 -111q-101 0 -195 56
t-135 121q-147 -176 -328 -177q-294 0 -364 232q-18 59 -19 127q0 145 96 254t292 108q116 0 190 -45t139 -127q49 57 82 88t99 58t147 26q377 0 377 -362z" />
    <glyph glyph-name="integral" unicode="&#x222b;" 
d="M711 1090v-1016q0 -315 -387 -396l-68 216q111 24 153 66t42 134v1016q0 90 27 160q28 70 67 108q99 98 299 127l61 -215q-117 -16 -155 -59t-39 -141z" />
    <glyph glyph-name="approxequal" unicode="&#x2248;" 
d="M795 -8q-66 0 -135 31q-70 31 -112 67q-115 99 -132 98q-74 0 -106 -32t-31 -131l-216 118q0 113 78 195t221 82q76 0 150 -30t117 -66t76 -65q33 -30 38 -30q76 0 107 30t31 128l217 -119q0 -112 -77 -194t-226 -82zM795 422q-66 0 -135 31q-70 31 -112 67
q-115 99 -132 98q-74 0 -106 -32t-31 -131l-216 118q0 113 78 195t221 82q76 0 150 -30t117 -66t76 -65q33 -30 38 -30q76 0 107 30t31 128l217 -119q0 -112 -77 -194t-226 -82z" />
    <glyph glyph-name="notequal" unicode="&#x2260;" 
d="M1057 113h-516l-172 -320l-197 111l111 209h-181v204h289l80 150h-369v205h480l166 313l196 -111l-108 -202h221v-205h-328l-82 -150h410v-204z" />
    <glyph glyph-name="lessequal" unicode="&#x2264;" 
d="M1057 -2h-955v207h955v-207zM1057 244l-955 209v276l955 215v-264l-662 -88l662 -86v-262z" />
    <glyph glyph-name="greaterequal" unicode="&#x2265;" 
d="M1057 -2h-955v207h955v-207zM1057 453l-955 -209v262l664 86l-664 88v264l955 -215v-276z" />
    <glyph glyph-name="lozenge" unicode="&#x25ca;" 
d="M836 641l-258 547l-256 -547l256 -547zM1061 641l-359 -717h-251l-353 717l353 713h254z" />
    <glyph glyph-name="fi" unicode="&#xfb01;" horiz-adv-x="1200" 
d="M440 948v-12h172v-215h-172v-721h-280v721h-142v215h142v22q0 182 112 272q113 89 338 132l99 -227q-139 -15 -204 -57t-65 -130zM1067 0h-281v936h281v-936zM1073 1104h-293v221h293v-221z" />
    <glyph glyph-name="fl" unicode="&#xfb02;" horiz-adv-x="1200" 
d="M440 948v-12h172v-215h-172v-721h-280v721h-142v215h142v22q0 182 112 272q113 89 338 132l99 -227q-139 -15 -204 -57t-65 -130zM1075 0h-280v1346h280v-1346z" />
    <glyph glyph-name="HT" horiz-adv-x="579" 
 />
    <glyph glyph-name="CR" horiz-adv-x="512" 
 />
    <glyph glyph-name="apple" 
d="M784 685q0 87 -58 149t-144 63q-86 0 -147 -64q-60 -65 -60 -150t60 -153q59 -68 145 -68t145 68t59 155zM570 262q-114 0 -199 57l-127 -131l-158 158l129 127q-55 90 -55 206t55 216l-131 125l158 158l127 -129q106 55 207 55t217 -55l125 129l155 -158l-127 -127
q53 -79 53 -197t-57 -223l131 -127l-155 -158l-130 131q-104 -57 -218 -57z" />
    </font>
</defs>
</svg>
